<svg preserveAspectRatio="none" width="100%" height="100%" overflow="visible" style="display: block;" viewBox="0 0 58.4615 58.4615" fill="none" xmlns="http://www.w3.org/2000/svg">
<g id="Icon">
<path id="Vector" d="M25.5525 5.4322L13.3974 10.0117C10.5961 11.0591 8.30634 14.3719 8.30634 17.3437V35.4425C8.30634 38.3168 10.2063 42.0925 12.5204 43.8219L22.9948 51.6412C26.4294 54.2232 32.0807 54.2232 35.5153 51.6412L45.9897 43.8219C48.3038 42.0925 50.2038 38.3168 50.2038 35.4425V17.3437C50.2038 14.3476 47.914 11.0348 45.1128 9.98732L32.9576 5.4322C30.8871 4.67707 27.5743 4.67707 25.5525 5.4322Z" fill="var(--fill-0, #4F6FDF)"/>
<path id="Vector_2" d="M25.9666 34.6628C25.5038 34.6628 25.041 34.4923 24.6756 34.1269L20.7538 30.2051C20.0474 29.4987 20.0474 28.3295 20.7538 27.6231C21.4602 26.9167 22.6295 26.9167 23.3359 27.6231L25.9666 30.2538L35.15 21.0705C35.8564 20.3641 37.0256 20.3641 37.732 21.0705C38.4384 21.7769 38.4384 22.9461 37.732 23.6526L27.2577 34.1269C26.8923 34.4923 26.4295 34.6628 25.9666 34.6628Z" fill="var(--fill-0, #F3F6FD)"/>
<g id="Vector_3" opacity="0">
</g>
</g>
</svg>
