<svg preserveAspectRatio="none" width="100%" height="100%" overflow="visible" style="display: block;" viewBox="0 0 53.0233 53.0233" fill="none" xmlns="http://www.w3.org/2000/svg">
<g id="copy">
<path id="Vector" d="M35.3488 28.5V37.7791C35.3488 45.5116 32.2558 48.6047 24.5233 48.6047H15.2442C7.51163 48.6047 4.4186 45.5116 4.4186 37.7791V28.5C4.4186 20.7674 7.51163 17.6744 15.2442 17.6744H24.5233C32.2558 17.6744 35.3488 20.7674 35.3488 28.5Z" stroke="var(--stroke-0, #1C3FCA)" stroke-width="3.44651" stroke-linecap="round" stroke-linejoin="round"/>
<path id="Vector_2" d="M48.6047 15.2442V24.5233C48.6047 32.2558 45.5116 35.3488 37.7791 35.3488H35.3488V28.5C35.3488 20.7674 32.2558 17.6744 24.5233 17.6744H17.6744V15.2442C17.6744 7.51163 20.7674 4.4186 28.5 4.4186H37.7791C45.5116 4.4186 48.6047 7.51163 48.6047 15.2442Z" stroke="var(--stroke-0, #1C3FCA)" stroke-width="3.44651" stroke-linecap="round" stroke-linejoin="round"/>
<g id="Vector_3" opacity="0">
</g>
</g>
</svg>
