<svg preserveAspectRatio="none" width="100%" height="100%" overflow="visible" style="display: block;" viewBox="0 0 60.2997 62.202" fill="none" xmlns="http://www.w3.org/2000/svg">
<g id="Group">
<path id="Vector" d="M15.0649 27.4052H45.2347C48.5362 27.4052 51.4851 29.4968 52.5734 32.6159L59.9365 53.6837C61.3897 57.8486 58.3009 62.202 53.8867 62.202H6.41289C1.99869 62.202 -1.09002 57.8486 0.363132 53.6837L7.7262 32.6159C8.81455 29.4968 11.7573 27.4052 15.0649 27.4052Z" fill="var(--fill-0, #1FC28D)"/>
<path id="Vector_2" d="M53.8868 62.1957H6.41291C2.0048 62.1957 -1.09 57.8424 0.369236 53.6774L7.73231 32.6097C8.79025 29.5757 11.6114 27.5145 14.8035 27.4112C14.8886 27.4112 14.9798 27.4112 15.065 27.4112H45.2347C48.5362 27.4112 51.4851 29.4967 52.5735 32.6158L56.714 44.4599L59.0914 51.2697L59.9365 53.6835C61.3897 57.8484 58.301 62.2018 53.8868 62.2018V62.1957Z" fill="var(--fill-0, #1FC28D)"/>
<path id="Vector_3" d="M56.7141 44.454L24.9696 27.4052H15.065C14.9799 27.4052 14.8887 27.4052 14.8035 27.4052L39.6045 40.7633L13.1437 62.1898H20.8776L44.2497 43.2623L59.0914 51.2577L56.7141 44.4479V44.454Z" fill="var(--fill-0, white)"/>
<path id="Vector_4" d="M56.714 44.454L25.0486 27.4052H45.2347C48.5362 27.4052 51.4851 29.4907 52.5734 32.6098L56.714 44.454Z" fill="var(--fill-0, #FFC14D)"/>
<path id="Vector_5" d="M39.6045 40.7693L13.1436 62.1957H6.41291C2.0048 62.1957 -1.09 57.8424 0.369236 53.6774L7.73231 32.6097C8.79025 29.5757 11.6114 27.5145 14.8035 27.4112L39.6045 40.7693Z" fill="var(--fill-0, #1FC28D)"/>
<path id="Vector_6" d="M53.8868 62.1958H20.8776L44.2497 43.2683L59.0914 51.2637L59.9365 53.6775C61.3897 57.8424 58.301 62.1958 53.8868 62.1958Z" fill="var(--fill-0, #3395FF)"/>
<path id="Vector_7" d="M29.8823 0.0075743C20.7682 0.275101 13.3261 7.77193 13.1437 16.8922C12.9126 28.5053 23.5529 38.1788 28.2346 41.8695C29.4993 42.8666 31.2808 42.8788 32.5454 41.8816C37.1724 38.2396 47.6546 28.7242 47.6546 17.2631C47.6607 7.55913 39.6531 -0.278193 29.8823 0.0075743ZM30.4052 23.7141C26.8544 23.7141 23.9785 20.8382 23.9785 17.2874C23.9785 13.7366 26.8544 10.8607 30.4052 10.8607C33.956 10.8607 36.8319 13.7366 36.8319 17.2874C36.8319 20.8382 33.956 23.7141 30.4052 23.7141Z" fill="var(--fill-0, #8062EE)"/>
</g>
</svg>
