<svg width="218" height="137" viewBox="0 0 218 137" fill="none" xmlns="http://www.w3.org/2000/svg">
<path d="M67.0456 136.841L190.005 136.699C199.089 136.691 206.59 129.602 207.122 120.536L212.092 35.3136C212.645 25.8007 205.341 17.6522 195.824 17.1716L63.1922 10.4649C53.0393 9.95001 44.6629 18.3259 45.1821 28.4825L49.8852 120.557C50.353 129.692 57.9012 136.854 67.0456 136.845V136.841Z" fill="#94E2EF"/>
<path d="M217.596 119.188L201.161 64.8225C198.372 55.6013 190.429 48.8732 180.873 47.6417L137.098 42.0034L96.8128 48.4741C86.7457 50.0918 78.7426 57.7811 76.7172 67.7704L66.1523 119.978L217.601 119.184L217.596 119.188Z" fill="white"/>
<mask id="mask0_173_4929" style="mask-type:alpha" maskUnits="userSpaceOnUse" x="66" y="42" width="152" height="78">
<path d="M217.596 119.188L201.161 64.8225C198.372 55.6013 190.429 48.8732 180.873 47.6417L137.098 42.0034L96.8128 48.4741C86.7457 50.0918 78.7426 57.7811 76.7172 67.7704L66.1523 119.978L217.601 119.184L217.596 119.188Z" fill="white"/>
</mask>
<g mask="url(#mask0_173_4929)">
<path d="M71.5636 40.3428H69.418V147.418H71.5636V40.3428Z" fill="#DCEEFF"/>
<path d="M77.2755 40.3428H75.1299V147.418H77.2755V40.3428Z" fill="#DCEEFF"/>
<path d="M82.9864 40.3428H80.8408V147.418H82.9864V40.3428Z" fill="#DCEEFF"/>
<path d="M88.6944 40.3428H86.5488V147.418H88.6944V40.3428Z" fill="#DCEEFF"/>
<path d="M94.4054 40.3428H92.2598V147.418H94.4054V40.3428Z" fill="#DCEEFF"/>
<path d="M100.117 40.3428H97.9717V147.418H100.117V40.3428Z" fill="#DCEEFF"/>
<path d="M105.829 40.3428H103.684V147.418H105.829V40.3428Z" fill="#DCEEFF"/>
<path d="M111.536 40.3428H109.391V147.418H111.536V40.3428Z" fill="#DCEEFF"/>
<path d="M117.247 40.3428H115.102V147.418H117.247V40.3428Z" fill="#DCEEFF"/>
<path d="M122.959 40.3428H120.813V147.418H122.959V40.3428Z" fill="#DCEEFF"/>
<path d="M128.671 40.3428H126.525V147.418H128.671V40.3428Z" fill="#DCEEFF"/>
<path d="M134.382 40.3428H132.236V147.418H134.382V40.3428Z" fill="#DCEEFF"/>
<path d="M140.089 40.3428H137.943V147.418H140.089V40.3428Z" fill="#DCEEFF"/>
<path d="M145.801 40.3428H143.655V147.418H145.801V40.3428Z" fill="#DCEEFF"/>
<path d="M151.513 40.3428H149.367V147.418H151.513V40.3428Z" fill="#DCEEFF"/>
<path d="M157.224 40.3428H155.078V147.418H157.224V40.3428Z" fill="#DCEEFF"/>
<path d="M162.936 40.3428H160.79V147.418H162.936V40.3428Z" fill="#DCEEFF"/>
<path d="M168.643 40.3428H166.497V147.418H168.643V40.3428Z" fill="#DCEEFF"/>
<path d="M174.355 40.3428H172.209V147.418H174.355V40.3428Z" fill="#DCEEFF"/>
<path d="M180.066 40.3428H177.92V147.418H180.066V40.3428Z" fill="#DCEEFF"/>
<path d="M185.777 40.3428H183.632V147.418H185.777V40.3428Z" fill="#DCEEFF"/>
<path d="M191.484 40.3428H189.339V147.418H191.484V40.3428Z" fill="#DCEEFF"/>
<path d="M197.196 40.3428H195.051V147.418H197.196V40.3428Z" fill="#DCEEFF"/>
<path d="M202.907 40.3428H200.762V147.418H202.907V40.3428Z" fill="#DCEEFF"/>
<path d="M208.619 40.3428H206.474V147.418H208.619V40.3428Z" fill="#DCEEFF"/>
<path d="M214.331 40.3428H212.186V147.418H214.331V40.3428Z" fill="#DCEEFF"/>
</g>
<path d="M146.415 47.4442L142.506 136.661L118.63 136.678L124.749 46.0024L146.415 47.4442Z" fill="#3395FF"/>
<path d="M151.048 24.7839C151.061 22.7628 149.478 20.9821 147.457 20.9864C146.671 20.9864 145.976 21.2396 145.405 21.6601L145.371 21.6472L144.552 9.41808C144.552 9.41808 144.543 9.40092 144.534 9.40092L119.379 8.5127C119.379 8.5127 119.362 8.52128 119.362 8.52986L120.405 34.1896C120.521 37.0731 122.07 38.9139 124.336 40.3513C124.34 40.3513 124.383 40.9177 124.731 41.2438L124.748 48.0964C124.52 54.6101 128.786 59.2271 135.347 59.2142C141.9 59.2056 146.907 53.2884 146.375 46.7534L145.895 30.6753L145.907 30.6581C147.671 30.4608 151.023 28.8645 151.048 24.7839V24.7839Z" fill="#E99E93"/>
<path d="M142.548 23.6726C142.548 23.6726 141.716 33.2113 138.476 33.9494C137.008 34.2841 135.489 33.7177 134.768 32.3961L134.189 31.3362C133.326 29.7571 131.649 28.796 129.851 28.8475L127.735 28.9075C125.358 28.9762 123.392 30.7741 123.118 33.1341L123.04 33.7906C122.937 34.6617 121.938 35.095 121.23 34.5801L120.401 33.9751L120.522 36.4982C120.706 40.4158 124.023 43.4495 127.941 43.2907L136.463 42.9431C141.098 42.7543 144.771 38.974 144.822 34.3356L144.955 22.7501L143.642 20.5488L142.548 23.6726V23.6726Z" fill="#1C3FCA"/>
<path d="M137.823 12.7692L138.162 15.2236C138.446 17.2532 139.703 19.0168 141.535 19.9436C142.157 20.2569 142.539 20.9048 142.509 21.6042L142.355 25.0885L144.93 24.8696L147.019 10.8126C147.461 7.83038 145.003 5.21292 141.999 5.47037L139.506 5.68492C129.709 -4.22282 116.938 0.501484 120.161 7.13096C117.556 7.16099 114.278 10.3835 115.548 14.5371C116.797 18.6178 121.44 18.5748 125.122 16.2835C129.7 13.43 133.966 10.8297 137.819 12.7735L137.823 12.7692Z" fill="#1C3FCA"/>
<path d="M145.401 21.3252L137.287 20.6515L137.278 20.643C136.394 19.5531 135.137 18.8751 133.738 18.7292C132.339 18.5833 130.975 18.9909 129.885 19.8792C129.528 20.1667 129.224 20.4971 128.962 20.8575L124.924 21.1493C124.868 21.1493 124.821 21.175 124.774 21.2051C123.971 20.5228 122.989 20.098 121.92 19.9864C119.036 19.6861 116.449 21.7929 116.153 24.6721C115.857 27.5556 117.959 30.1431 120.839 30.4391C121.023 30.4563 121.204 30.4692 121.384 30.4692C124.04 30.4692 126.327 28.4524 126.606 25.7534C126.752 24.3589 126.344 22.9901 125.456 21.9002C125.417 21.853 125.375 21.8101 125.336 21.7629L128.537 21.5312C128.237 22.1104 128.039 22.7455 127.971 23.4149C127.675 26.2984 129.777 28.8858 132.657 29.1819C132.841 29.199 133.021 29.2119 133.202 29.2119C135.858 29.2119 138.145 27.1952 138.424 24.4962C138.54 23.3806 138.295 22.2864 137.746 21.3381L145.341 21.9688C145.341 21.9688 145.359 21.9688 145.367 21.9688C145.534 21.9688 145.672 21.8401 145.689 21.6728C145.706 21.4968 145.573 21.3381 145.397 21.3252H145.401ZM125.971 25.6848C125.709 28.2121 123.444 30.0572 120.907 29.7955C118.38 29.5337 116.535 27.2638 116.796 24.7322C117.041 22.3636 119.049 20.5958 121.379 20.5958C121.538 20.5958 121.697 20.6043 121.856 20.6215C123.083 20.7459 124.182 21.3424 124.963 22.2992C125.744 23.2561 126.1 24.4576 125.971 25.6805V25.6848ZM137.789 24.4275C137.527 26.9549 135.253 28.8043 132.725 28.5382C130.198 28.2765 128.353 26.0066 128.614 23.475C128.739 22.2478 129.335 21.1493 130.292 20.3726C131.12 19.699 132.137 19.3385 133.193 19.3385C133.352 19.3385 133.515 19.3471 133.678 19.3643C134.905 19.4887 136.008 20.0851 136.785 21.042C137.561 21.9989 137.922 23.2003 137.793 24.4233L137.789 24.4275Z" fill="white"/>
<path d="M47.5982 59.1714H55.6999C56.3736 59.1714 56.9186 59.7163 56.9186 60.39V62.2051H46.3838V60.39C46.3838 59.7163 46.9288 59.1714 47.6025 59.1714H47.5982Z" fill="#5ECDD3"/>
<path d="M114.514 59.1714H122.616C123.29 59.1714 123.835 59.7163 123.835 60.39V62.2051H113.3V60.39C113.3 59.7163 113.845 59.1714 114.519 59.1714H114.514Z" fill="#5ECDD3"/>
<path d="M131.598 115.55H38.2646L45.0061 66.8693C45.3752 64.1961 47.6623 62.2051 50.3615 62.2051H138.498C141.755 62.2051 144.274 65.0671 143.858 68.2982L138.579 109.409C138.129 112.919 135.138 115.55 131.598 115.55V115.55Z" fill="#412FAD"/>
<path d="M126.049 119.617H27.0605L33.4973 66.9507C33.8277 64.2389 36.1321 62.2007 38.8613 62.2007H126.959C130.203 62.2007 132.718 65.0413 132.323 68.2595L126.049 119.613V119.617Z" fill="#5D49D3"/>
<path d="M50.3651 62.2051H38.8648C36.1313 62.2051 33.8312 64.2433 33.5008 66.9551L27.0684 119.622H38.5687L45.0012 66.9551C45.3316 64.2433 47.636 62.2051 50.3651 62.2051Z" fill="#412FAD"/>
<path d="M19.4477 115.55H126.59V131.16C126.59 134.207 124.114 136.683 121.067 136.683H24.9661C21.9194 136.683 19.4434 134.207 19.4434 131.16V115.55H19.4477Z" fill="#5D49D3"/>
<path d="M0.00429536 115.55H107.146V131.16C107.146 134.207 104.67 136.683 101.624 136.683H5.52274C2.476 136.683 0 134.207 0 131.16V115.55H0.00429536Z" fill="#8062F6"/>
<path d="M78.5374 108.817H69.4229C68.4062 108.817 67.582 109.642 67.582 110.658V113.705C67.582 114.721 68.4062 115.546 69.4229 115.546H78.5374C79.5541 115.546 80.3783 114.721 80.3783 113.705V110.658C80.3783 109.642 79.5541 108.817 78.5374 108.817Z" fill="#068E6D"/>
<path d="M10.3848 108.817H20.3232C21.3399 108.817 22.1641 107.993 22.1641 106.977V103.93C22.1641 102.913 21.3399 102.089 20.3232 102.089H10.3848C9.36811 102.089 8.54389 102.913 8.54389 103.93V106.977C8.54389 107.993 9.36811 108.817 10.3848 108.817Z" fill="#1FC691"/>
<path d="M45.4263 59.1714H53.5281C54.2018 59.1714 54.7468 59.7163 54.7468 60.39V62.2051H44.2119V60.39C44.2119 59.7163 44.7569 59.1714 45.4306 59.1714H45.4263Z" fill="#C2F9FF"/>
<path d="M112.231 59.1714H120.333C121.006 59.1714 121.551 59.7163 121.551 60.39V62.2051H111.017V60.39C111.017 59.7163 111.562 59.1714 112.235 59.1714H112.231Z" fill="#C2F9FF"/>
<path d="M16.1992 118.751H28.4934C29.3131 118.751 29.9782 119.416 29.9782 120.236V122.398C29.9782 123.922 28.7423 125.157 27.2189 125.157H18.9584C17.4351 125.157 16.1992 123.922 16.1992 122.398V118.751V118.751Z" fill="#5ECDD3"/>
<path d="M83.2578 118.751H95.552C96.3716 118.751 97.0368 119.416 97.0368 120.236V122.398C97.0368 123.922 95.8009 125.157 94.2776 125.157H86.0171C84.4937 125.157 83.2578 123.922 83.2578 122.398V118.751Z" fill="#5ECDD3"/>
<path d="M81.5707 118.751H92.3801C93.1997 118.751 93.8649 119.416 93.8649 120.236V122.398C93.8649 123.922 92.629 125.157 91.1056 125.157H82.8451C81.3218 125.157 80.0859 123.922 80.0859 122.398V120.236C80.0859 119.416 80.7511 118.751 81.5707 118.751Z" fill="#C2F9FF"/>
<path d="M49.5634 108.817H18.5597C17.5429 108.817 16.7188 109.642 16.7188 110.658V113.705C16.7188 114.721 17.5429 115.546 18.5597 115.546H49.5634C50.5801 115.546 51.4043 114.721 51.4043 113.705V110.658C51.4043 109.642 50.5801 108.817 49.5634 108.817Z" fill="#1FC691"/>
<path d="M65.745 108.817H34.7413C33.7246 108.817 32.9004 109.642 32.9004 110.658V113.705C32.9004 114.721 33.7246 115.546 34.7413 115.546H65.745C66.7617 115.546 67.586 114.721 67.586 113.705V110.658C67.586 109.642 66.7617 108.817 65.745 108.817Z" fill="#1FC691"/>
<path d="M83.5103 98.7849L53.4478 86.9739C52.5015 86.6022 51.433 87.0679 51.0612 88.0141L46.0836 100.682C45.7118 101.628 46.1775 102.697 47.1238 103.069L77.1863 114.88C78.1326 115.251 79.201 114.786 79.5728 113.839L84.5505 101.171C84.9223 100.225 84.4566 99.1567 83.5103 98.7849Z" fill="#068E6D"/>
<path d="M85.1636 94.5866L55.1011 82.7757C54.1548 82.4039 53.0863 82.8696 52.7145 83.8158L47.7369 96.4839C47.3651 97.4302 47.8308 98.4986 48.7771 98.8704L78.8396 110.681C79.7859 111.053 80.8544 110.587 81.2262 109.641L86.2038 96.9731C86.5756 96.0269 86.1099 94.9584 85.1636 94.5866Z" fill="#1FC691"/>
<path d="M77.3183 107.217C76.9536 107.217 76.5845 107.148 76.2369 107.011L53.1891 97.9569C52.4553 97.6694 51.8759 97.1116 51.5584 96.3864C51.2409 95.6612 51.228 94.8588 51.5155 94.1208L53.8756 88.1092C54.4721 86.5902 56.1929 85.8393 57.712 86.4358L80.7598 95.4896C81.4936 95.7771 82.073 96.3349 82.3905 97.0601C82.7081 97.7852 82.7209 98.5876 82.4334 99.3257L80.069 105.337C79.7815 106.071 79.2236 106.65 78.4984 106.968C78.1208 107.135 77.7174 107.217 77.3183 107.217V107.217ZM56.6349 86.8863C55.7166 86.8863 54.8455 87.4398 54.4893 88.3452L52.1292 94.3568C51.906 94.9275 51.9146 95.554 52.1635 96.1161C52.4081 96.6782 52.8587 97.1116 53.4294 97.339L76.4773 106.393C77.048 106.616 77.6745 106.607 78.2366 106.358C78.7988 106.114 79.2322 105.663 79.4596 105.093L81.824 99.0811C82.0472 98.5104 82.0386 97.8839 81.7897 97.3218C81.5451 96.7597 81.0945 96.3263 80.5238 96.0989L57.4759 87.0451C57.2013 86.9378 56.9181 86.8863 56.6392 86.8863H56.6349Z" fill="#068E6D"/>
<path d="M37.157 108.817H30.9648V115.546H37.157V108.817Z" fill="#BDDCFF"/>
<path d="M58.4417 108.817H49.3273C48.3105 108.817 47.4863 109.642 47.4863 110.658V113.705C47.4863 114.721 48.3105 115.546 49.3273 115.546H58.4417C59.4584 115.546 60.2826 114.721 60.2826 113.705V110.658C60.2826 109.642 59.4584 108.817 58.4417 108.817Z" fill="#068E6D"/>
<path d="M19.2589 108.817H50.2626C51.2793 108.817 52.1035 107.993 52.1035 106.977V103.93C52.1035 102.913 51.2793 102.089 50.2626 102.089H19.2589C18.2422 102.089 17.418 102.913 17.418 103.93V106.977C17.418 107.993 18.2422 108.817 19.2589 108.817Z" fill="#068E6D"/>
<path d="M31.6643 108.817H37.8564V102.089H31.6643V108.817Z" fill="#89B9E8"/>
<path d="M66.9769 101.308C69.5104 101.308 71.5642 99.2546 71.5642 96.7213C71.5642 94.1879 69.5104 92.1343 66.9769 92.1343C64.4435 92.1343 62.3896 94.1879 62.3896 96.7213C62.3896 99.2546 64.4435 101.308 66.9769 101.308Z" fill="#068E6D"/>
<path d="M123.671 93.4295L92.5371 84.8309C91.5571 84.5602 90.5433 85.1352 90.2726 86.1152L86.6488 99.2348C86.3781 100.215 86.9531 101.229 87.9331 101.499L119.067 110.098C120.047 110.368 121.061 109.793 121.332 108.814L124.955 95.6939C125.226 94.714 124.651 93.7002 123.671 93.4295Z" fill="#068E6D"/>
<path d="M124.872 89.0789L93.7384 80.4803C92.7583 80.2097 91.7444 80.7846 91.4738 81.7646L87.85 94.8842C87.5793 95.8641 88.1543 96.878 89.1343 97.1486L120.268 105.747C121.248 106.018 122.262 105.443 122.533 104.463L126.157 91.3434C126.427 90.3634 125.852 89.3496 124.872 89.0789Z" fill="#1FC691"/>
<path d="M118.081 102.488C117.814 102.488 117.548 102.454 117.287 102.381L93.4192 95.79C92.6553 95.5797 92.0245 95.0863 91.634 94.3955C91.2435 93.7089 91.1448 92.9108 91.3551 92.147L93.0758 85.9209C93.5092 84.3461 95.1442 83.4236 96.7148 83.857L120.582 90.4478C121.346 90.6581 121.977 91.1515 122.367 91.8424C122.758 92.5289 122.857 93.327 122.646 94.0908L120.926 100.317C120.715 101.081 120.222 101.711 119.531 102.102C119.08 102.359 118.583 102.488 118.076 102.488H118.081ZM95.9209 84.4062C95.5261 84.4062 95.1399 84.5092 94.788 84.7066C94.2516 85.0112 93.8697 85.5047 93.7067 86.0968L91.9859 92.3229C91.6469 93.5458 92.3678 94.816 93.5908 95.1507L117.458 101.742C118.05 101.905 118.673 101.827 119.205 101.527C119.741 101.222 120.123 100.729 120.286 100.137L122.007 93.9106C122.17 93.3184 122.093 92.6962 121.792 92.1642C121.488 91.6278 120.994 91.2459 120.402 91.0829L96.5346 84.492C96.3329 84.4362 96.1226 84.4062 95.9166 84.4062H95.9209Z" fill="#068E6D"/>
<path d="M107.005 97.7038C109.539 97.7038 111.592 95.6501 111.592 93.1168C111.592 90.5834 109.539 88.5298 107.005 88.5298C104.472 88.5298 102.418 90.5834 102.418 93.1168C102.418 95.6501 104.472 97.7038 107.005 97.7038Z" fill="#068E6D"/>
<path d="M112.703 85.7181L105.911 83.8423L101.307 100.511L108.099 102.386L112.703 85.7181Z" fill="#BDDCFF"/>
<path d="M73.4135 89.9706L66.8555 87.394L60.5315 103.489L67.0895 106.065L73.4135 89.9706Z" fill="#BDDCFF"/>
<path d="M83.9757 105.75L81.2898 73.5639C81.2053 72.5508 80.3154 71.798 79.3022 71.8826L65.7377 73.0144C64.7245 73.0989 63.9717 73.9887 64.0563 75.0019L66.7422 107.188C66.8267 108.201 67.7166 108.954 68.7298 108.869L82.2943 107.737C83.3074 107.653 84.0603 106.763 83.9757 105.75Z" fill="#068E6D"/>
<path d="M88.4728 105.373L85.7869 73.187C85.7023 72.1739 84.8124 71.4211 83.7992 71.5056L70.2348 72.6374C69.2216 72.722 68.4688 73.6118 68.5533 74.625L71.2393 106.811C71.3238 107.824 72.2137 108.577 73.2269 108.492L86.7913 107.36C87.8045 107.276 88.5573 106.386 88.4728 105.373Z" fill="#1FC691"/>
<path d="M76.2847 105.565C75.5852 105.565 74.9158 105.32 74.3794 104.865C73.7744 104.355 73.4096 103.638 73.3409 102.853L71.2855 78.1757C71.2211 77.3862 71.4657 76.6224 71.9764 76.0174C72.487 75.4124 73.2036 75.0477 73.9889 74.979L80.4257 74.4426C81.2152 74.3826 81.9791 74.6229 82.5841 75.1335C83.1892 75.6441 83.5582 76.3607 83.6226 77.1459L85.6781 101.823C85.7424 102.613 85.4978 103.376 84.9872 103.981C84.4765 104.586 83.7599 104.951 82.9746 105.02L76.5379 105.556C76.4521 105.565 76.3705 105.565 76.289 105.565H76.2847ZM73.9975 102.797C74.049 103.411 74.3365 103.964 74.8042 104.363C75.272 104.758 75.8728 104.951 76.4821 104.9L82.9189 104.363C83.5325 104.312 84.0861 104.024 84.4851 103.557C84.8842 103.089 85.073 102.492 85.0215 101.879L82.9661 77.2017C82.9146 76.5881 82.627 76.0346 82.1593 75.6355C81.6916 75.2407 81.0951 75.0519 80.4814 75.0991L74.0447 75.6355C73.4311 75.687 72.8775 75.9745 72.4784 76.4422C72.0793 76.9099 71.8905 77.5063 71.942 78.12L73.9975 102.797Z" fill="#068E6D"/>
<path d="M78.4818 94.5846C81.0152 94.5846 83.0691 92.531 83.0691 89.9976C83.0691 87.4643 81.0152 85.4106 78.4818 85.4106C75.9483 85.4106 73.8945 87.4643 73.8945 89.9976C73.8945 92.531 75.9483 94.5846 78.4818 94.5846Z" fill="#068E6D"/>
<path d="M87.4228 92.7928L86.8369 85.7715L69.6034 87.2095L70.1893 94.2308L87.4228 92.7928Z" fill="#BDDCFF"/>
<path d="M57.3863 125.985V129.603H44.8732V125.985C44.8732 124.968 44.0493 124.145 43.0323 124.145H36.2823C35.2653 124.145 34.4414 124.968 34.4414 125.985V126.29C34.4414 127.307 35.2653 128.131 36.2823 128.131H40.8867V131.748C40.8867 132.765 41.7106 133.589 42.7276 133.589H59.5276C60.5446 133.589 61.3685 132.765 61.3685 131.748V128.131H65.9729C66.9899 128.131 67.8138 127.307 67.8138 126.29V125.985C67.8138 124.968 66.9899 124.145 65.9729 124.145H59.2229C58.2059 124.145 57.382 124.968 57.382 125.985H57.3863Z" fill="#94E2EF"/>
<path d="M40.8867 126.474H36.2823C35.5056 126.474 34.8447 125.989 34.5744 125.307C34.4929 125.517 34.4414 125.745 34.4414 125.981V126.285C34.4414 127.302 35.2653 128.126 36.2823 128.126H40.8867V126.474V126.474Z" fill="#5ECDD3"/>
<path d="M65.9726 126.474H61.3682V128.126H65.9726C66.9896 128.126 67.8135 127.302 67.8135 126.285V125.981C67.8135 125.741 67.7663 125.513 67.6805 125.307C67.4101 125.989 66.7493 126.474 65.9726 126.474V126.474Z" fill="#5ECDD3"/>
<path d="M59.5276 131.932H42.7276C41.7106 131.932 40.8867 131.108 40.8867 130.091V131.743C40.8867 132.76 41.7106 133.584 42.7276 133.584H59.5276C60.5446 133.584 61.3685 132.76 61.3685 131.743V130.091C61.3685 131.108 60.5446 131.932 59.5276 131.932Z" fill="#5ECDD3"/>
<path d="M39.4999 123.467C39.4999 122.929 39.0638 122.493 38.5258 122.493C37.9878 122.493 37.5518 122.929 37.5518 123.467V128.809C37.5518 129.347 37.9878 129.783 38.5258 129.783C39.0638 129.783 39.4999 129.347 39.4999 128.809V123.467Z" fill="#5D49D3"/>
<path d="M64.7451 123.467C64.7451 122.929 64.309 122.493 63.771 122.493C63.233 122.493 62.7969 122.929 62.7969 123.467V128.809C62.7969 129.347 63.233 129.783 63.771 129.783C64.309 129.783 64.7451 129.347 64.7451 128.809V123.467Z" fill="#5D49D3"/>
<path d="M118.471 108.817H106.318C105.302 108.817 104.478 109.642 104.478 110.658V113.705C104.478 114.721 105.302 115.546 106.318 115.546H118.471C119.488 115.546 120.312 114.721 120.312 113.705V110.658C120.312 109.642 119.488 108.817 118.471 108.817Z" fill="#068E6D"/>
<path d="M110.519 108.817H79.5157C78.499 108.817 77.6748 109.642 77.6748 110.658V113.705C77.6748 114.721 78.499 115.546 79.5157 115.546H110.519C111.536 115.546 112.36 114.721 112.36 113.705V110.658C112.36 109.642 111.536 108.817 110.519 108.817Z" fill="#1FC691"/>
<path d="M98.113 108.817H91.9209V115.546H98.113V108.817Z" fill="#BDDCFF"/>
<path d="M14.766 118.751H25.5755C26.3951 118.751 27.0602 119.416 27.0602 120.236V122.398C27.0602 123.922 25.8243 125.157 24.301 125.157H16.0405C14.5171 125.157 13.2812 123.922 13.2812 122.398V120.236C13.2812 119.416 13.9464 118.751 14.766 118.751V118.751Z" fill="#C2F9FF"/>
<path d="M98.9549 125.367C97.144 127.187 98.5472 129.186 100.641 128.024C106.155 124.96 108.88 123.806 108.88 123.806C108.88 123.806 100.002 129.195 100.5 131.542C100.92 133.542 103.714 132.319 103.714 132.319C102.233 133.756 103.817 135.357 106.078 134.34C109.022 133.014 116.905 129.221 116.905 129.221C116.905 129.221 109.116 131.546 107.799 133.829C107.142 134.966 107.975 135.872 109.558 135.438C113.154 134.456 115.922 133.396 118.111 132.756C118.111 132.756 123.96 133.057 130.667 129.989L149.891 131.199L139.494 114.4C132.164 114.46 116.514 115.288 110.116 117.923C104.443 120.257 101.045 123.269 98.9635 125.367H98.9549Z" fill="#E99E93"/>
<path d="M126.84 114.988C126.84 114.988 109.349 115.125 106.671 114.966C102.487 114.713 101.105 120.158 115.502 120.639C120.411 120.802 126.84 114.988 126.84 114.988Z" fill="#E99E93"/>
<path d="M107.203 119.356C107.082 119.356 106.966 119.287 106.911 119.172C106.833 119.008 106.902 118.815 107.061 118.738C107.091 118.725 109.953 117.352 114.013 116.288C114.189 116.245 114.364 116.348 114.407 116.52C114.455 116.691 114.347 116.872 114.176 116.915C110.181 117.962 107.37 119.309 107.34 119.322C107.293 119.343 107.245 119.356 107.198 119.356H107.203Z" fill="#D67570"/>
<path d="M103.396 132.636C103.358 132.636 103.315 132.628 103.276 132.611C103.109 132.542 103.031 132.353 103.096 132.19C103.443 131.336 108.099 126.921 114.48 125.325C114.652 125.282 114.832 125.385 114.875 125.561C114.918 125.737 114.815 125.913 114.639 125.955C108.49 127.496 103.984 131.731 103.697 132.435C103.645 132.559 103.525 132.636 103.396 132.636V132.636Z" fill="#D67570"/>
<path d="M107.55 133.988C107.473 133.988 107.396 133.962 107.336 133.906C107.203 133.786 107.19 133.584 107.31 133.447C107.405 133.34 109.735 130.774 116.15 128.912C116.322 128.86 116.502 128.959 116.553 129.13C116.605 129.302 116.506 129.482 116.334 129.534C110.099 131.345 107.821 133.85 107.799 133.876C107.735 133.949 107.645 133.983 107.555 133.983L107.55 133.988Z" fill="#D67570"/>
<path d="M108.035 124.213C107.911 124.213 107.791 124.14 107.739 124.02C107.666 123.857 107.739 123.664 107.902 123.591C108.014 123.54 110.67 122.372 112.55 122.003C112.726 121.973 112.897 122.085 112.932 122.261C112.966 122.437 112.85 122.608 112.674 122.643C110.867 122.995 108.194 124.175 108.168 124.187C108.125 124.205 108.083 124.213 108.035 124.213V124.213Z" fill="#D67570"/>
<path d="M107.551 133.988C107.486 133.988 107.422 133.971 107.366 133.928C107.22 133.825 107.186 133.623 107.285 133.477C107.362 133.37 109.207 130.808 116.154 128.912C116.326 128.865 116.506 128.968 116.554 129.139C116.601 129.311 116.498 129.491 116.326 129.538C109.649 131.366 107.838 133.829 107.817 133.851C107.752 133.941 107.654 133.988 107.551 133.988V133.988Z" fill="#D67570"/>
<path d="M201.891 136.661H134.722L130.705 114.159L214.658 109.452L216.807 116.571C219.833 126.577 212.345 136.661 201.891 136.661V136.661Z" fill="white"/>
<mask id="mask1_173_4929" style="mask-type:alpha" maskUnits="userSpaceOnUse" x="130" y="109" width="88" height="28">
<path d="M201.891 136.661H134.722L130.705 114.159L214.658 109.452L216.807 116.571C219.833 126.577 212.345 136.661 201.891 136.661V136.661Z" fill="white"/>
</mask>
<g mask="url(#mask1_173_4929)">
<path d="M227.405 109.456L121.437 112.694L121.502 114.838L227.47 111.601L227.405 109.456Z" fill="#DCEEFF"/>
<path d="M227.405 115.815L120.77 117.453L120.802 119.598L227.438 117.96L227.405 115.815Z" fill="#DCEEFF"/>
<path d="M227.431 121.968L120.596 122.639L120.609 124.785L227.444 124.113L227.431 121.968Z" fill="#DCEEFF"/>
<path d="M227.432 128.101H120.351V130.246H227.432V128.101Z" fill="#DCEEFF"/>
<path d="M227.432 133.812H120.351V135.957H227.432V133.812Z" fill="#DCEEFF"/>
</g>
<path d="M32.5398 74.7861C32.5398 74.7861 39.912 74.6831 39.9979 77.0217C40.0579 78.678 37.3846 78.7509 37.3846 78.7509C37.3846 78.7509 40.0665 78.8367 39.9121 80.5145C39.7576 82.1922 36.9211 82.4969 36.9211 82.4969C36.9211 82.4969 39.3284 82.853 38.9551 84.342C38.6504 85.5606 35.917 85.9425 35.917 85.9425C35.917 85.9425 37.5219 86.2257 36.9082 87.676C36.2946 89.1264 30.7032 89.504 28.0126 88.8646C24.2364 87.9678 27.1244 73.4345 32.9346 71.8125L32.5398 74.7861V74.7861Z" fill="#E99E93"/>
<path d="M37.586 79.0898C37.5474 79.0898 33.7497 79.0769 29.7761 78.2402C29.6001 78.2016 29.4886 78.0342 29.5272 77.8583C29.5658 77.6824 29.7374 77.5751 29.9091 77.6094C33.8141 78.4333 37.5517 78.4461 37.586 78.4461C37.7619 78.4461 37.9078 78.592 37.9078 78.768C37.9078 78.9439 37.7619 79.0898 37.586 79.0898Z" fill="#D67570"/>
<path d="M32.1793 75.0008C31.4713 75.0008 30.6088 74.8763 30.4629 74.2928C30.4199 74.1211 30.5229 73.9452 30.6946 73.9023C30.8662 73.8594 31.0422 73.9624 31.0851 74.134C31.1452 74.2885 31.9433 74.4043 32.7887 74.3271C32.956 74.3057 33.1234 74.4387 33.1406 74.6146C33.1577 74.7905 33.029 74.9493 32.853 74.9665C32.6771 74.9836 32.4411 75.0008 32.1836 75.0008H32.1793Z" fill="#D67570"/>
<path d="M35.3594 82.7673C33.5271 82.7673 30.9438 82.63 29.0471 81.9649C28.8797 81.9048 28.7896 81.7246 28.8497 81.5529C28.9098 81.3856 29.09 81.2955 29.2616 81.3556C32.3255 82.4283 37.5093 82.055 37.5608 82.0507C37.741 82.0464 37.8912 82.1708 37.9041 82.3468C37.9169 82.5227 37.7839 82.6772 37.608 82.69C37.5178 82.6986 36.6124 82.763 35.3594 82.763V82.7673Z" fill="#D67570"/>
<path d="M32.7116 86.4443C31.1196 86.4443 29.2915 86.2942 28.1029 85.7278C27.9441 85.6505 27.8755 85.4617 27.9527 85.2987C28.0299 85.1399 28.2187 85.0713 28.3818 85.1485C30.6733 86.2384 35.827 85.6291 35.8785 85.6248C36.0587 85.599 36.2175 85.7278 36.2346 85.9037C36.2561 86.0796 36.1317 86.2427 35.9557 86.2598C35.8441 86.2727 34.4109 86.4443 32.7116 86.4443V86.4443Z" fill="#D67570"/>
<path d="M143.248 113.503C143.081 113.503 142.939 113.37 142.926 113.198C142.918 113.022 143.051 112.868 143.231 112.859L182.165 110.598C182.349 110.581 182.495 110.723 182.504 110.903C182.512 111.079 182.379 111.233 182.199 111.242L143.265 113.503C143.265 113.503 143.252 113.503 143.248 113.503Z" fill="#97E5F2"/>
<path d="M202.471 136.996L134.726 136.983C134.55 136.983 134.404 136.837 134.404 136.661C134.404 136.485 134.55 136.339 134.726 136.339L202.471 136.352C207.23 136.352 211.585 134.159 214.417 130.336C217.254 126.513 218.086 121.707 216.7 117.154L206.041 80.9347C205.99 80.763 206.088 80.5871 206.26 80.5356C206.432 80.4841 206.608 80.5828 206.659 80.7545L217.318 116.974C218.76 121.724 217.893 126.736 214.937 130.727C211.98 134.713 207.436 137 202.471 137V136.996Z" fill="#97E5F2"/>
</svg>
