<svg width="64" height="64" viewBox="0 0 64 64" fill="none" xmlns="http://www.w3.org/2000/svg">
<path d="M0 32C0 14.3269 14.3269 0 32 0V0C49.6731 0 64 14.3269 64 32V32C64 49.6731 49.6731 64 32 64V64C14.3269 64 0 49.6731 0 32V32Z" fill="#FEF8D7"/>
<g clip-path="url(#clip0_304_9490)">
<path d="M13.75 26.8337C13.0667 26.8337 12.5 26.267 12.5 25.5837C12.5 18.467 18.3 12.667 25.4167 12.667C25.85 12.667 26.2667 12.9003 26.4833 13.267C26.7167 13.6503 26.7167 14.117 26.5167 14.5003L24.8333 17.6337C24.5 18.2503 23.75 18.467 23.1333 18.1503C22.5167 17.817 22.3 17.067 22.6167 16.4503L23.1833 15.4003C18.5 16.417 14.9833 20.6003 14.9833 25.5837C14.9833 26.267 14.4167 26.8337 13.7333 26.8337H13.75Z" fill="#FBBE66"/>
<path d="M38.5664 51.5329C38.1331 51.5329 37.7164 51.2996 37.4997 50.9163C37.2664 50.5329 37.2664 50.0663 37.4664 49.6829L39.1497 46.5496C39.4831 45.9329 40.2331 45.7163 40.8497 46.0329C41.4664 46.3663 41.6831 47.1163 41.3664 47.7329L40.7997 48.7829C45.4831 47.7663 48.9997 43.5829 48.9997 38.5996C48.9997 37.9163 49.5664 37.3496 50.2497 37.3496C50.9331 37.3496 51.4997 37.9163 51.4997 38.5996C51.4997 45.7163 45.6997 51.5163 38.5831 51.5163L38.5664 51.5329Z" fill="#FBBE66"/>
<path d="M50.3329 24.0669C49.9163 18.5503 45.4996 14.1336 39.9829 13.7169C39.6663 13.7003 39.3996 13.6836 39.0996 13.6836C32.8829 13.6836 27.8496 18.7169 27.8496 24.9336C27.8496 25.4003 27.8829 25.8503 27.9329 26.2836C32.7329 27.4836 36.5329 31.3003 37.7329 36.0836C38.1829 36.1336 38.6329 36.1669 39.0996 36.1669C45.3163 36.1669 50.3496 31.1336 50.3496 24.9169C50.3496 24.6003 50.3329 24.3336 50.3329 24.0669Z" fill="#F99F35"/>
<path d="M35.9502 39.2832C35.9502 45.4999 30.9169 50.5332 24.7002 50.5332C18.4835 50.5332 13.4502 45.4999 13.4502 39.2832C13.4502 33.0665 18.4835 28.0332 24.7002 28.0332C25.0002 28.0332 25.2669 28.0499 25.5835 28.0665C31.1002 28.4832 35.5169 32.8999 35.9335 38.4165C35.9335 38.6832 35.9502 38.9665 35.9502 39.2665V39.2832Z" fill="#F99F35"/>
<path d="M50.3334 24.0669C49.9167 18.5503 45.5 14.1336 39.9834 13.7169C39.6667 13.7003 39.4 13.6836 39.1 13.6836C32.8834 13.6836 27.85 18.7169 27.85 24.9336C27.85 25.4003 27.8834 25.8503 27.9334 26.2836C32.7334 27.4836 36.5333 31.3003 37.7333 36.0836C38.1833 36.1336 38.6334 36.1669 39.1 36.1669C45.3167 36.1669 50.35 31.1336 50.35 24.9169C50.35 24.6003 50.3334 24.3336 50.3334 24.0669Z" fill="url(#paint0_linear_304_9490)" fill-opacity="0.3"/>
<path d="M35.9502 39.2836C35.9502 45.5002 30.9169 50.5336 24.7002 50.5336C18.4835 50.5336 13.4502 45.5002 13.4502 39.2836C13.4502 33.0669 18.4835 28.0336 24.7002 28.0336C25.0002 28.0336 25.2669 28.0502 25.5835 28.0669C31.1002 28.4836 35.5169 32.9002 35.9335 38.4169C35.9335 38.6836 35.9502 38.9669 35.9502 39.2669V39.2836Z" fill="url(#paint1_linear_304_9490)" fill-opacity="0.3"/>
<path d="M41.9329 24.3163L40.5329 23.8329V20.8329C41.1829 20.8329 41.7329 21.4329 41.7329 22.1496C41.7329 22.8663 42.2996 23.3996 42.9829 23.3996C43.6663 23.3996 44.2329 22.8329 44.2329 22.1496C44.2329 20.0496 42.5829 18.3329 40.5329 18.3329V18.0996C40.5329 17.4163 39.9663 16.8496 39.2829 16.8496C38.5996 16.8496 38.0329 17.4163 38.0329 18.0996V18.3329H37.7496C35.8829 18.3329 34.3496 19.8996 34.3496 21.8329C34.3496 24.0663 35.6663 24.7996 36.6496 25.1496L38.0329 25.6329V28.6329C37.3829 28.6329 36.8496 28.0329 36.8496 27.3163C36.8496 26.5996 36.2829 26.0663 35.5996 26.0663C34.9163 26.0663 34.3496 26.6329 34.3496 27.3163C34.3496 29.4163 35.9996 31.1163 38.0329 31.1329V31.3663C38.0329 32.0496 38.5996 32.6163 39.2829 32.6163C39.9663 32.6163 40.5329 32.0496 40.5329 31.3663V31.1329H40.8329C42.6996 31.1329 44.2329 29.5663 44.2329 27.6329C44.2329 25.3996 42.9329 24.6663 41.9329 24.3163ZM37.4996 22.7663C37.0496 22.5996 36.8663 22.5496 36.8663 21.8163C36.8663 21.2663 37.2663 20.8163 37.7663 20.8163H38.0496V22.9496L37.4996 22.7663ZM40.8496 28.6163H40.5496V26.4663L41.1163 26.6663C41.5663 26.8329 41.7496 26.8829 41.7496 27.6163C41.7496 28.1663 41.3496 28.6163 40.8496 28.6163Z" fill="#FEE4AE"/>
<path d="M28.7002 36.7833H26.6335C26.5335 36.4167 26.4002 36.0667 26.2169 35.75H28.7002C29.3835 35.75 29.9502 35.1833 29.9502 34.5C29.9502 33.8167 29.3835 33.25 28.7002 33.25H20.7002C20.0169 33.25 19.4502 33.8167 19.4502 34.5C19.4502 35.1833 20.0169 35.75 20.7002 35.75H22.0169C22.8169 35.75 23.5169 36.1667 23.9335 36.7833H20.7002C20.0169 36.7833 19.4502 37.35 19.4502 38.0333C19.4502 38.7167 20.0169 39.2833 20.7002 39.2833H23.9335C23.5169 39.9 22.8169 40.3167 22.0169 40.3167H20.7002C20.1669 40.3167 19.6835 40.6667 19.5169 41.1833C19.3502 41.7 19.5169 42.2667 19.9669 42.5833L24.8169 46.1167C25.0335 46.2833 25.3002 46.35 25.5502 46.35C25.9335 46.35 26.3169 46.1667 26.5669 45.8333C26.9669 45.2833 26.8502 44.5 26.3002 44.0833L23.9835 42.3833C25.2835 41.8 26.2669 40.65 26.6502 39.2667H28.7169C29.4002 39.2667 29.9669 38.7 29.9669 38.0167C29.9669 37.3333 29.4002 36.7667 28.7169 36.7667L28.7002 36.7833Z" fill="#FEE4AE"/>
</g>
<defs>
<linearGradient id="paint0_linear_304_9490" x1="16.2177" y1="21.9542" x2="52.4118" y2="38.4125" gradientUnits="userSpaceOnUse">
<stop stop-color="white" stop-opacity="0"/>
<stop offset="1" stop-color="#010003"/>
</linearGradient>
<linearGradient id="paint1_linear_304_9490" x1="16.2177" y1="21.9542" x2="52.4118" y2="38.4125" gradientUnits="userSpaceOnUse">
<stop stop-color="white" stop-opacity="0"/>
<stop offset="1" stop-color="#010003"/>
</linearGradient>
<clipPath id="clip0_304_9490">
<rect width="40" height="40" fill="white" transform="translate(12 12)"/>
</clipPath>
</defs>
</svg>
