<svg width="64" height="64" viewBox="0 0 64 64" fill="none" xmlns="http://www.w3.org/2000/svg">
<path d="M0 32C0 14.3269 14.3269 0 32 0V0C49.6731 0 64 14.3269 64 32V32C64 49.6731 49.6731 64 32 64V64C14.3269 64 0 49.6731 0 32V32Z" fill="#D0DDFC"/>
<g clip-path="url(#clip0_304_9498)">
<path d="M32 13.25C23.0333 13.25 15.75 20.5333 15.75 29.5V36.75C15.75 37.4333 16.3167 38 17 38C17.6833 38 18.25 37.4333 18.25 36.75V29.5C18.25 21.9167 24.4167 15.75 32 15.75C39.5833 15.75 45.75 21.9167 45.75 29.5V42.5C45.75 45.1167 43.6167 47.25 41 47.25H35.5333C34.85 47.25 34.2833 47.8167 34.2833 48.5C34.2833 49.1833 34.85 49.75 35.5333 49.75H41C45 49.75 48.25 46.5 48.25 42.5V29.5C48.25 20.5333 40.9667 13.25 32 13.25Z" fill="#4BB3F6"/>
<path d="M33.5 50.75H30.5C28.9833 50.75 27.75 49.5167 27.75 48C27.75 46.4833 28.9833 45.25 30.5 45.25H33.5C35.0167 45.25 36.25 46.4833 36.25 48C36.25 49.5167 35.0167 50.75 33.5 50.75Z" fill="#174A8E"/>
<path d="M33.5 50.75H30.5C28.9833 50.75 27.75 49.5167 27.75 48C27.75 46.4833 28.9833 45.25 30.5 45.25H33.5C35.0167 45.25 36.25 46.4833 36.25 48C36.25 49.5167 35.0167 50.75 33.5 50.75Z" fill="url(#paint0_linear_304_9498)" fill-opacity="0.3"/>
<path d="M20.4667 42.6162C17.8667 42.6162 15.75 40.5162 15.75 37.9162V33.0662C15.75 30.4829 17.85 28.3662 20.45 28.3662C23.0333 28.3662 25.15 30.4662 25.15 33.0662V37.9162C25.15 40.4995 23.05 42.6162 20.45 42.6162H20.4667Z" fill="#174A8E"/>
<path d="M43.5507 42.6162C40.9507 42.6162 38.834 40.5162 38.834 37.9162V33.0662C38.834 30.4829 40.934 28.3662 43.534 28.3662C46.1173 28.3662 48.234 30.4662 48.234 33.0662V37.9162C48.234 40.4995 46.134 42.6162 43.534 42.6162H43.5507Z" fill="#174A8E"/>
<path d="M20.4667 42.6162C17.8667 42.6162 15.75 40.5162 15.75 37.9162V33.0662C15.75 30.4829 17.85 28.3662 20.45 28.3662C23.0333 28.3662 25.15 30.4662 25.15 33.0662V37.9162C25.15 40.4995 23.05 42.6162 20.45 42.6162H20.4667Z" fill="url(#paint1_linear_304_9498)" fill-opacity="0.3"/>
<path d="M43.5507 42.6162C40.9507 42.6162 38.834 40.5162 38.834 37.9162V33.0662C38.834 30.4829 40.934 28.3662 43.534 28.3662C46.1173 28.3662 48.234 30.4662 48.234 33.0662V37.9162C48.234 40.4995 46.134 42.6162 43.534 42.6162H43.5507Z" fill="url(#paint2_linear_304_9498)" fill-opacity="0.3"/>
</g>
<defs>
<linearGradient id="paint0_linear_304_9498" x1="28.2499" y1="45.75" x2="33.0454" y2="51.8866" gradientUnits="userSpaceOnUse">
<stop stop-color="white" stop-opacity="0"/>
<stop offset="1" stop-color="#010003"/>
</linearGradient>
<linearGradient id="paint1_linear_304_9498" x1="24.5" y1="31.9996" x2="16.9594" y2="39.4859" gradientUnits="userSpaceOnUse">
<stop stop-color="white" stop-opacity="0"/>
<stop offset="1" stop-color="#010003"/>
</linearGradient>
<linearGradient id="paint2_linear_304_9498" x1="39.5005" y1="31.9996" x2="49.5094" y2="34.5402" gradientUnits="userSpaceOnUse">
<stop stop-color="white" stop-opacity="0"/>
<stop offset="1" stop-color="#010003"/>
</linearGradient>
<clipPath id="clip0_304_9498">
<rect width="40" height="40" fill="white" transform="translate(12 12)"/>
</clipPath>
</defs>
</svg>
