<svg width="192" height="114" viewBox="0 0 192 114" fill="none" xmlns="http://www.w3.org/2000/svg">
<path opacity="0.15" d="M186.266 30.6221L191.917 90.2807C193.121 103.041 181.02 113.966 165.647 113.966L26.3707 114C10.6868 114 -1.52237 102.681 0.154193 89.6951L9.22654 19.6072C10.7679 7.6124 23.6395 -1.09368 38.0525 0.111433L162.605 10.4957C175.287 11.5544 185.252 20.0239 186.252 30.6109L186.266 30.6221Z" fill="#3395FF"/>
<path d="M21.6405 94.6553L28.3182 26.0562L67.0052 103.399H30.76C25.4112 103.399 21.192 99.3565 21.6572 94.6553H21.6405Z" fill="#4B39B5"/>
<path d="M28.6152 29.0581L38.0171 95.7241C38.6483 100.162 42.9173 103.486 47.9836 103.486H65.3421L28.6152 29.0581Z" fill="#9D8CF4"/>
<path d="M36.9888 19.7729L122.801 19.8169C127.552 19.8169 131.754 22.5263 133.216 26.5245L157.535 93.6591C159.296 98.5214 155.176 103.501 149.379 103.515L60.3272 103.647C56.5399 103.647 53.1845 101.465 52.1048 98.2578L28.7829 29.5122C27.1385 24.6645 31.258 19.7876 36.9888 19.7876V19.7729Z" fill="white"/>
<path d="M137.103 37.3035L133.315 26.8467C131.804 22.6581 127.385 19.8169 122.402 19.8169L36.4568 19.7729C30.9751 19.7729 27.0549 24.4155 28.6164 29.0435L31.407 37.2889H137.086L137.103 37.3035Z" fill="#8262F9"/>
<path d="M63.1669 28.1648L59.8447 25.968C61.2566 24.3131 61.9875 21.7208 61.7882 19.07C61.456 14.6032 58.5823 10.9711 55.5923 11.1615C52.5691 11.3372 50.31 15.2622 50.6422 19.7291L46.5061 19.978C46.0077 13.3144 49.8781 7.83699 55.3265 7.51479C60.7417 7.19259 65.4426 12.172 65.9409 18.8357C66.2067 22.3945 65.1934 25.8069 63.1669 28.1795V28.1648Z" fill="#1C3FCA"/>
<path d="M116.09 29.0727L112.768 26.8759C114.18 25.221 114.911 22.6288 114.711 19.9779C114.545 17.6786 113.681 15.4964 112.369 13.988C111.705 13.2264 110.293 11.9669 108.515 12.0694C105.509 12.2452 103.499 15.35 103.532 19.8022L99.3794 19.8315C99.3296 13.3289 102.901 8.7449 108.25 8.4227C111.024 8.2616 113.648 9.44788 115.658 11.7619C117.502 13.8561 118.632 16.6974 118.864 19.7436C119.13 23.3024 118.117 26.7002 116.09 29.0874V29.0727Z" fill="#1C3FCA"/>
<path d="M91.3899 29.0727L88.0677 26.8758C89.4796 25.2209 90.2105 22.6287 90.0112 19.9778C89.6789 15.511 86.7886 11.8643 83.8153 12.0693C80.8087 12.2451 78.7988 15.3499 78.832 19.8021L74.6792 19.8314C74.6294 13.3288 78.2008 8.74481 83.5495 8.42261C88.9813 8.05648 93.6656 13.0799 94.1639 19.7435C94.4297 23.3024 93.4164 26.7147 91.3899 29.0873V29.0727Z" fill="#1C3FCA"/>
<path d="M52.0044 46.3545H67.6519C68.8313 46.3545 69.8778 47.0282 70.2433 48.0094L72.4359 54.0873C72.7515 54.9806 72.004 55.9033 70.9243 55.9033H55.2768C54.0974 55.9033 53.0509 55.2296 52.6854 54.2484L50.4928 48.1705C50.1772 47.2772 50.9247 46.3545 52.0044 46.3545Z" fill="#C0DFFF"/>
<path d="M81.3579 46.3545H97.0055C98.1848 46.3545 99.2313 47.0282 99.5968 48.0094L101.789 54.0873C102.105 54.9806 101.358 55.9033 100.278 55.9033H84.6303C83.4509 55.9033 82.4044 55.2296 82.039 54.2484L79.8463 48.1705C79.5307 47.2772 80.2782 46.3545 81.3579 46.3545Z" fill="#C0DFFF"/>
<path d="M110.708 46.3545H126.355C127.534 46.3545 128.581 47.0282 128.946 48.0094L131.139 54.0873C131.455 54.9806 130.707 55.9033 129.627 55.9033H113.98C112.801 55.9033 111.754 55.2296 111.389 54.2484L109.196 48.1705C108.88 47.2772 109.628 46.3545 110.708 46.3545Z" fill="#C0DFFF"/>
<path d="M57.9683 62.8892H73.6158C74.7952 62.8892 75.8417 63.5629 76.2071 64.5441L78.3998 70.6219C78.7154 71.5153 77.9679 72.438 76.8882 72.438H61.2406C60.0612 72.438 59.0147 71.7643 58.6493 70.783L56.4567 64.7052C56.141 63.8118 56.8885 62.8892 57.9683 62.8892Z" fill="#C0DFFF"/>
<path d="M87.3198 62.8892H102.967C104.147 62.8892 105.193 63.5629 105.559 64.5441L107.751 70.6219C108.067 71.5153 107.319 72.438 106.24 72.438H90.5922C89.4128 72.438 88.3663 71.7643 88.0009 70.783L85.8082 64.7052C85.4926 63.8118 86.2401 62.8892 87.3198 62.8892Z" fill="#C0DFFF"/>
<path d="M116.687 62.8892H132.335C133.514 62.8892 134.56 63.5629 134.926 64.5441L137.119 70.6219C137.434 71.5153 136.687 72.438 135.607 72.438H119.959C118.78 72.438 117.733 71.7643 117.368 70.783L115.175 64.7052C114.86 63.8118 115.607 62.8892 116.687 62.8892Z" fill="#C0DFFF"/>
<path d="M63.9302 79.4092H79.5777C80.7571 79.4092 81.8036 80.0829 82.169 81.0641L84.3617 87.142C84.6773 88.0353 83.9298 88.958 82.8501 88.958H67.2025C66.0232 88.958 64.9767 88.2843 64.6112 87.3031L62.4186 81.2252C62.103 80.3318 62.8505 79.4092 63.9302 79.4092Z" fill="#EA7FE0"/>
<path d="M93.2827 79.4092H108.93C110.11 79.4092 111.156 80.0829 111.522 81.0641L113.714 87.142C114.03 88.0353 113.282 88.958 112.203 88.958H96.5551C95.3757 88.958 94.3292 88.2843 93.9638 87.3031L91.7711 81.2252C91.4555 80.3318 92.203 79.4092 93.2827 79.4092Z" fill="#C0DFFF"/>
<path d="M122.65 79.4092H138.297C139.477 79.4092 140.523 80.0829 140.889 81.0641L143.081 87.142C143.397 88.0353 142.65 88.958 141.57 88.958H125.922C124.743 88.958 123.696 88.2843 123.331 87.3031L121.138 81.2252C120.823 80.3318 121.57 79.4092 122.65 79.4092Z" fill="#C0DFFF"/>
</svg>
