<svg width="64" height="64" viewBox="0 0 64 64" fill="none" xmlns="http://www.w3.org/2000/svg">
<path d="M0 32C0 14.3269 14.3269 0 32 0V0C49.6731 0 64 14.3269 64 32V32C64 49.6731 49.6731 64 32 64V64C14.3269 64 0 49.6731 0 32V32Z" fill="#C7F9D6"/>
<g clip-path="url(#clip0_301_9441)">
<path d="M32.0007 48.6663C41.2054 48.6663 48.6673 41.2044 48.6673 31.9997C48.6673 22.7949 41.2054 15.333 32.0007 15.333C22.7959 15.333 15.334 22.7949 15.334 31.9997C15.334 41.2044 22.7959 48.6663 32.0007 48.6663Z" fill="#00875F"/>
<path d="M32.0007 48.6663C41.2054 48.6663 48.6673 41.2044 48.6673 31.9997C48.6673 22.7949 41.2054 15.333 32.0007 15.333C22.7959 15.333 15.334 22.7949 15.334 31.9997C15.334 41.2044 22.7959 48.6663 32.0007 48.6663Z" fill="url(#paint0_linear_301_9441)" fill-opacity="0.3"/>
<path fill-rule="evenodd" clip-rule="evenodd" d="M32 20.75C32.6904 20.75 33.25 21.3096 33.25 22V22.9831H33.8698C36.6667 22.9831 38.8198 25.334 38.8198 28.1164C38.8198 28.8068 38.2601 29.3664 37.5698 29.3664C36.8794 29.3664 36.3198 28.8068 36.3198 28.1164C36.3198 26.5988 35.1728 25.4831 33.8698 25.4831H33.25V31.1067L35.7874 31.9882C36.5359 32.2535 37.3477 32.6512 37.9473 33.4161C38.5585 34.1957 38.8198 35.1875 38.8198 36.3831C38.8198 38.8862 36.8628 41.0164 34.3365 41.0164H33.25V42C33.25 42.6904 32.6904 43.25 32 43.25C31.3096 43.25 30.75 42.6904 30.75 42V41.0164H30.1531C27.3562 41.0164 25.2031 38.6654 25.2031 35.8831C25.2031 35.1927 25.7628 34.6331 26.4531 34.6331C27.1435 34.6331 27.7031 35.1927 27.7031 35.8831C27.7031 37.4007 28.8501 38.5164 30.1531 38.5164H30.75V32.8848L28.2355 32.0113C27.487 31.746 26.6752 31.3483 26.0756 30.5834C25.4644 29.8037 25.2031 28.8119 25.2031 27.6164C25.2031 25.1133 27.1601 22.9831 29.6865 22.9831H30.75V22C30.75 21.3096 31.3096 20.75 32 20.75ZM30.75 25.4831H29.6865C28.6462 25.4831 27.7031 26.3862 27.7031 27.6164C27.7031 28.4542 27.8835 28.8374 28.0431 29.0411C28.214 29.2591 28.5014 29.4527 29.0671 29.6536L30.75 30.2382V25.4831ZM33.25 33.7533V38.5164H34.3365C35.3768 38.5164 36.3198 37.6133 36.3198 36.3831C36.3198 35.5453 36.1394 35.1621 35.9798 34.9584C35.8089 34.7404 35.5215 34.5468 34.9558 34.3459L33.25 33.7533Z" fill="#57DB9A"/>
</g>
<defs>
<linearGradient id="paint0_linear_301_9441" x1="8.59897" y1="20.3976" x2="54.36" y2="38.3817" gradientUnits="userSpaceOnUse">
<stop stop-color="white" stop-opacity="0"/>
<stop offset="0.855" stop-color="#010003"/>
</linearGradient>
<clipPath id="clip0_301_9441">
<rect width="40" height="40" fill="white" transform="translate(12 12)"/>
</clipPath>
</defs>
</svg>
