<svg width="400" height="77" viewBox="0 0 400 77" fill="none" xmlns="http://www.w3.org/2000/svg">
<g clip-path="url(#clip0_176_7813)">
<path d="M400 0H0V77H400V0Z" fill="white"/>
<path d="M393.548 6.4165H70.9678V70.5832H393.548V6.4165Z" fill="#004B8D"/>
<path d="M91.356 53.6421V23.3555H101.42V33.6221H110.969V23.3555H121.033V53.6421H110.969V42.0921H101.42V53.6421H91.356Z" fill="white"/>
<path d="M136.773 31.0547H139.354C141.16 31.0547 142.708 31.3113 143.483 31.568C144.257 31.8247 144.773 32.338 145.031 32.8513C145.547 33.3647 145.805 34.1347 146.063 35.1613C146.321 36.188 146.321 37.2147 146.321 38.2413C146.321 40.038 146.063 41.578 145.547 42.6047C145.031 43.888 144.257 44.658 143.225 45.1713C142.708 45.9413 141.16 46.198 139.354 46.198H136.773V31.0547ZM140.644 53.6413C142.967 53.6413 145.031 53.3847 146.579 53.128C148.128 52.6147 149.418 52.1013 150.45 51.588C151.483 50.818 152.515 50.048 153.289 49.0213C154.063 47.738 154.838 46.4547 155.354 44.658C155.87 42.8613 156.128 40.808 156.128 38.498C156.128 35.1613 155.612 32.338 154.321 30.028C153.031 27.718 151.225 26.178 148.902 25.1513C146.579 24.1247 143.999 23.6113 140.644 23.6113H126.708V53.898H140.644V53.6413Z" fill="white"/>
<path d="M161.033 53.6421V23.3555H184.775V30.7988H171.098V35.6755H182.194V43.1188H171.098V53.6421H161.033Z" fill="white"/>
<path d="M218.581 34.9089H209.033C208.775 33.3689 208.258 32.0855 207.484 31.3155C206.452 30.5455 205.42 30.0322 203.871 30.0322C202.065 30.0322 200.775 30.8022 199.484 32.0855C198.452 33.3689 197.678 35.6789 197.678 38.7589C197.678 40.8122 197.936 42.6089 198.452 43.6355C198.968 44.6622 199.484 45.6889 200.517 46.2022C201.291 46.7155 202.323 46.9722 203.613 46.9722C205.162 46.9722 206.452 46.7155 207.226 45.6889C208.258 44.9189 208.775 43.6355 208.775 41.8389H218.323C218.065 43.6355 217.807 45.1755 217.291 46.7155C216.775 47.9989 215.742 49.2822 214.452 50.5655C213.162 51.8489 211.613 52.8755 209.807 53.6455C208 54.4155 205.936 54.6722 203.613 54.6722C201.291 54.6722 199.226 54.4155 197.162 53.6455C195.097 52.8755 193.549 51.8489 192.258 50.8222C190.968 49.5389 189.936 47.9989 189.162 46.4589C188.129 44.1489 187.613 41.5822 187.613 38.7589C187.613 36.4489 187.871 34.1389 188.646 32.0855C189.42 30.0322 190.452 28.2355 191.742 26.9522C193.033 25.6689 194.581 24.6422 196.129 23.8722C198.71 23.1022 201.033 22.5889 203.613 22.5889C205.936 22.5889 208 22.8455 209.807 23.6155C211.871 24.3855 213.42 25.1555 214.71 26.4389C216 27.7222 217.033 29.2622 217.549 30.8022C218.065 32.0855 218.323 33.3689 218.581 34.9089Z" fill="white"/>
<path d="M250.579 30.2855C251.87 30.2855 252.902 30.2855 253.418 30.5421C253.934 30.7988 254.45 31.0555 254.967 31.5688C255.225 32.0821 255.483 32.5955 255.483 33.1088C255.483 33.8788 255.225 34.6488 254.709 34.9055C254.192 35.4188 252.902 35.6755 251.354 35.6755H247.483V30.2855H250.579ZM253.16 53.6421C255.483 53.6421 257.289 53.6421 258.063 53.3855C259.096 53.1288 260.128 52.8721 261.16 52.3588C262.192 51.8455 262.967 51.3321 263.483 50.8188C264.257 50.0488 264.773 49.2788 265.289 48.2521C265.805 47.2255 265.805 45.9421 265.805 44.6588C265.805 42.8621 265.289 41.3221 264.515 40.0388C263.483 38.7555 262.45 37.9855 260.902 37.4721C263.483 35.9321 264.773 33.6221 264.773 31.0555C264.773 28.2321 263.483 26.1788 261.16 24.8955C259.354 23.8688 256.515 23.3555 252.902 23.3555H237.676V53.6421H253.16ZM251.612 41.0655C253.676 41.0655 254.967 41.3221 255.483 41.8355C255.999 42.3488 256.515 43.1188 256.515 43.8888C256.515 44.9155 256.257 45.4288 255.483 45.9421C254.967 46.4555 253.676 46.7121 251.612 46.7121H247.483V41.0655H251.612Z" fill="white"/>
<path d="M288.001 43.6321H281.549L284.646 32.5955L288.001 43.6321ZM278.452 53.6421L279.484 49.5355H289.549L290.839 53.6421H300.904L290.065 23.3555H279.743L268.904 53.6421H278.452Z" fill="white"/>
<path d="M305.033 53.6421V23.3555H314.323L324.904 39.7821V23.3555H334.452V53.6421H324.904L314.581 37.9855V53.6421H305.033Z" fill="white"/>
<path d="M341.162 53.6421V23.3555H350.968V33.3655L360 23.3555H371.871L360.775 34.9055L373.162 53.6421H361.033L353.549 41.5788L350.968 44.4021V53.6421H341.162Z" fill="white"/>
<path d="M59.6136 59.5489H41.8071V70.5855H70.9684V41.8389H59.6136V59.5489Z" fill="#EC1C24"/>
<path d="M17.8065 17.7098H35.3549V6.4165H6.45166V35.4198H17.8065V17.7098Z" fill="#EC1C24"/>
<path d="M17.8065 59.5489V41.8389H6.45166V70.5855H35.3549V59.5489H17.8065Z" fill="#EC1C24"/>
<path d="M41.8066 6.4165V17.7098H59.6131V35.4198H70.9679V6.4165H41.8066Z" fill="#EC1C24"/>
<path d="M48.2586 29.0054H28.9038V48.2554H48.2586V29.0054Z" fill="#004B8D"/>
</g>
<defs>
<clipPath id="clip0_176_7813">
<rect width="400" height="77" fill="white"/>
</clipPath>
</defs>
</svg>
