<svg width="64" height="64" viewBox="0 0 64 64" fill="none" xmlns="http://www.w3.org/2000/svg">
<path d="M0 32C0 14.3269 14.3269 0 32 0V0C49.6731 0 64 14.3269 64 32V32C64 49.6731 49.6731 64 32 64V64C14.3269 64 0 49.6731 0 32V32Z" fill="#FBDCF6"/>
<g clip-path="url(#clip0_301_9446)">
<path d="M19 37V21.5C19 18.1833 21.6833 15.5 25 15.5H39C42.3167 15.5 45 18.1833 45 21.5V37H19Z" fill="#AB47BC"/>
<path d="M19 37V21.5C19 18.1833 21.6833 15.5 25 15.5H39C42.3167 15.5 45 18.1833 45 21.5V37H19Z" fill="url(#paint0_linear_301_9446)" fill-opacity="0.3"/>
<path d="M44.9839 27.5C42.8839 27.5 41.1672 29.2 41.1672 31.3167V36.5H22.8339V31.3167C22.8339 29.2 21.1172 27.5 19.0172 27.5C16.7672 27.5 15.0006 29.4333 15.2172 31.6667L16.6672 46.9833C16.7506 47.8333 17.4672 48.5 18.3339 48.5H45.6672C46.5339 48.5 47.2506 47.85 47.3339 46.9833L48.7839 31.6667C49.0006 29.4333 47.2339 27.5 44.9839 27.5Z" fill="#370D5A"/>
</g>
<defs>
<linearGradient id="paint0_linear_301_9446" x1="20.95" y1="20.3255" x2="42.3186" y2="36.8327" gradientUnits="userSpaceOnUse">
<stop stop-color="white" stop-opacity="0"/>
<stop offset="1" stop-color="#010003"/>
</linearGradient>
<clipPath id="clip0_301_9446">
<rect width="40" height="40" fill="white" transform="translate(12 12)"/>
</clipPath>
</defs>
</svg>
