<svg width="163" height="137" viewBox="0 0 163 137" fill="none" xmlns="http://www.w3.org/2000/svg">
<path d="M5.61816 119.543V31.7841C5.61816 21.9889 13.8354 14.1853 23.6454 14.6736L146.68 20.7811C156.297 21.2565 163.643 29.5313 162.956 39.1123L157.117 120.768C156.477 129.732 148.999 136.679 139.987 136.679H22.791C13.3073 136.679 5.61816 129.008 5.61816 119.547V119.543Z" fill="#94E2EF"/>
<path d="M142.232 84.0922H113.961V53.4346L88.833 74.4341V136.67H139.982C144.434 136.67 148.513 134.97 151.578 132.173L152.128 131.646C154.953 128.828 156.807 125.02 157.112 120.759L158.598 100.004V66.9003H142.232V84.0922Z" fill="#48CCD3"/>
<path d="M140.978 7.0498H135.303C134.776 7.0498 134.35 7.4755 134.35 8.00063V11.6454C134.35 12.1706 134.776 12.5963 135.303 12.5963H140.978C141.505 12.5963 141.931 12.1706 141.931 11.6454V8.00063C141.931 7.4755 141.505 7.0498 140.978 7.0498Z" fill="#3392FF"/>
<path d="M140.515 7.05H135.771L135.964 3.63217C136.002 2.91263 136.599 2.35156 137.325 2.35156H138.965C139.686 2.35156 140.283 2.91263 140.326 3.63217L140.519 7.05H140.515Z" fill="#3392FF"/>
<path d="M153.991 101.588H122.294C121.708 101.588 121.233 102.062 121.233 102.646V106.981C121.233 107.565 121.708 108.039 122.294 108.039H153.991C154.576 108.039 155.051 107.565 155.051 106.981V102.646C155.051 102.062 154.576 101.588 153.991 101.588Z" fill="#3392FF"/>
<path d="M145.46 74.1514H130.82C130.235 74.1514 129.76 74.625 129.76 75.2093V79.5437C129.76 80.1279 130.235 80.6015 130.82 80.6015H145.46C146.046 80.6015 146.52 80.1279 146.52 79.5437V75.2093C146.52 74.625 146.046 74.1514 145.46 74.1514Z" fill="#3392FF"/>
<path d="M142.957 59.6492L141.322 20.5926L140.987 12.6006H135.298L134.976 20.2757L133.328 59.6492C132.482 79.805 127.115 99.5367 117.49 117.277C110.629 129.929 104.318 136.675 104.318 136.675H119.357L124.737 125.003C124.801 124.875 124.866 124.746 124.93 124.618C127.446 119.641 132.555 116.493 138.145 116.493C140.935 116.493 143.61 117.281 145.898 118.686C148.191 120.095 150.097 122.125 151.35 124.614C152.05 126.001 152.772 127.355 153.514 128.665L153.956 129.578C155.738 127.089 156.872 124.1 157.108 120.845L157.533 114.887C148.697 97.7721 143.764 78.9056 142.957 59.6492ZM131.447 107.053C135.697 93.5106 138.14 67.3543 138.14 67.3543C138.14 67.3543 140.63 92.9066 144.954 107.152C138.518 107.083 138.196 107.023 131.447 107.053Z" fill="#3392FF"/>
<path d="M154.996 109.666C154.747 109.126 154.494 108.583 154.253 108.039H122.037C121.796 108.583 121.552 109.122 121.303 109.666H155H154.996Z" fill="#0967D5"/>
<path d="M130.782 80.606C130.696 81.0214 130.61 81.4368 130.524 81.8523H136.423C136.483 81.4326 136.539 81.0171 136.595 80.606H130.782Z" fill="#0967D5"/>
<path d="M145.504 80.606H139.742C139.798 81.0171 139.858 81.4326 139.918 81.8523H145.766C145.675 81.4368 145.59 81.0214 145.504 80.606Z" fill="#0967D5"/>
<path d="M141.03 13.6885L140.987 12.6006H135.298L135.251 13.6885H141.03Z" fill="#0967D5"/>
<path d="M140.514 7.37096H135.77C135.594 7.37096 135.448 7.22534 135.448 7.04974C135.448 6.87414 135.594 6.72852 135.77 6.72852H140.514C140.69 6.72852 140.836 6.87414 140.836 7.04974C140.836 7.22534 140.69 7.37096 140.514 7.37096Z" fill="#0967D8"/>
<path d="M138.14 67.6755C137.964 67.6755 137.818 67.5299 137.818 67.3543V13.6884C137.818 13.5128 137.964 13.3672 138.14 13.3672C138.316 13.3672 138.462 13.5128 138.462 13.6884V67.3543C138.462 67.5299 138.316 67.6755 138.14 67.6755Z" fill="#0967D8"/>
<path d="M138.14 3.06235C137.964 3.06235 137.818 2.91673 137.818 2.74112V0.321224C137.818 0.145622 137.964 0 138.14 0C138.316 0 138.462 0.145622 138.462 0.321224V2.74112C138.462 2.91673 138.316 3.06235 138.14 3.06235Z" fill="#3392FF"/>
<path d="M113.506 136.996C113.454 136.996 113.403 136.983 113.355 136.961C113.196 136.88 113.136 136.683 113.218 136.529L120.306 123.003C123.612 116.694 130.103 112.775 137.238 112.775C143.871 112.775 150.127 116.287 153.57 121.941L156.09 126.078C156.184 126.228 156.133 126.43 155.983 126.52C155.828 126.614 155.631 126.562 155.54 126.412L153.02 122.275C149.693 116.814 143.648 113.418 137.238 113.418C130.344 113.418 124.071 117.204 120.877 123.303L113.789 136.829C113.733 136.94 113.617 137 113.501 137L113.506 136.996Z" fill="#0967D8"/>
<path d="M144.357 74.4725H131.928C131.752 74.4725 131.606 74.3269 131.606 74.1513C131.606 73.9757 131.752 73.8301 131.928 73.8301H144.357C144.533 73.8301 144.679 73.9757 144.679 74.1513C144.679 74.3269 144.533 74.4725 144.357 74.4725Z" fill="#0967D8"/>
<path d="M151.672 101.91H124.698C124.522 101.91 124.376 101.764 124.376 101.588C124.376 101.413 124.522 101.267 124.698 101.267H151.672C151.848 101.267 151.994 101.413 151.994 101.588C151.994 101.764 151.848 101.91 151.672 101.91Z" fill="#0967D8"/>
<path d="M118.817 50.3765H97.1963C96.089 50.3765 95.1914 51.272 95.1914 52.3766V63.4053C95.1914 64.51 96.089 65.4055 97.1963 65.4055H118.817C119.924 65.4055 120.822 64.51 120.822 63.4053V52.3766C120.822 51.272 119.924 50.3765 118.817 50.3765Z" fill="#5D49D3"/>
<path d="M117.302 50.5308H95.8957C94.7813 50.5308 93.8779 51.432 93.8779 52.5438V63.2298C93.8779 64.3416 94.7813 65.2428 95.8957 65.2428H117.302C118.416 65.2428 119.32 64.3416 119.32 63.2298V52.5438C119.32 51.432 118.416 50.5308 117.302 50.5308Z" fill="#C0E4F9"/>
<path d="M117.421 50.3765H95.8008C94.6935 50.3765 93.7959 51.272 93.7959 52.3766V63.4053C93.7959 64.51 94.6935 65.4055 95.8008 65.4055H117.421C118.529 65.4055 119.426 64.51 119.426 63.4053V52.3766C119.426 51.272 118.529 50.3765 117.421 50.3765Z" fill="#8062F6"/>
<path d="M117.258 50.959H95.9381C95.037 50.959 94.3066 51.6877 94.3066 52.5865V63.1912C94.3066 64.0901 95.037 64.8187 95.9381 64.8187H117.258C118.159 64.8187 118.89 64.0901 118.89 63.1912V52.5865C118.89 51.6877 118.159 50.959 117.258 50.959Z" fill="#AEF7FF"/>
<path d="M117.331 38.9068C118.169 38.9068 118.723 38.016 118.328 37.2793C117.228 35.2363 114.983 33.8401 112.386 33.8401C112.068 33.8401 111.755 33.8615 111.45 33.9043C111.145 33.9471 110.823 33.7887 110.69 33.4974C109.526 30.9876 106.882 29.2358 103.795 29.2358C99.9998 29.2358 96.8701 31.8827 96.3506 35.3263C96.2948 35.6989 95.9771 35.9815 95.5993 35.9815H95.5864C94.5388 35.9815 93.5729 36.3285 92.8173 36.9067C91.9715 37.5534 92.4352 38.9068 93.4999 38.9068H117.336H117.331Z" fill="#CFF7F9"/>
<path d="M107.187 54.5484C107.131 54.2872 106.887 54.0901 106.595 54.0901C106.565 54.0901 106.539 54.0901 106.509 54.0944C106.479 54.0987 106.453 54.0816 106.44 54.0559C106.333 53.8289 106.097 53.6704 105.813 53.6704C105.47 53.6704 105.182 53.9102 105.139 54.2229C105.135 54.2572 105.105 54.2829 105.071 54.2829C104.89 54.2829 104.74 54.3942 104.688 54.5484H107.187Z" fill="white"/>
<path d="M98.9784 55.773C98.9312 55.2591 98.5019 54.8522 97.9695 54.8522C97.9266 54.8522 97.8836 54.8522 97.8407 54.8608C97.7892 54.8693 97.7377 54.8394 97.7119 54.7923C97.5831 54.5524 97.3255 54.3896 97.0336 54.3896C96.6086 54.3896 96.2608 54.7323 96.2608 55.1606C96.2608 55.2077 96.2651 55.2548 96.2737 55.2976C96.2608 55.2976 96.2222 55.2976 96.2136 55.2976C96.0247 55.3019 95.853 55.3705 95.7199 55.4861C95.6727 55.5246 95.604 55.5289 95.5567 55.4904C95.4709 55.4219 95.3635 55.379 95.2433 55.379C95.0029 55.379 94.8054 55.546 94.7539 55.773H98.9698H98.9784Z" fill="white"/>
<path d="M115.979 56.7583C115.842 56.5356 115.597 56.3857 115.314 56.3857C115.301 56.3857 115.292 56.3857 115.279 56.3857C115.112 55.9274 114.678 55.5977 114.163 55.5977C113.687 55.5977 113.279 55.876 113.09 56.2787C113.068 56.3258 113.017 56.3429 112.97 56.3258C112.879 56.2872 112.781 56.2658 112.678 56.2658C112.347 56.2658 112.068 56.4671 111.952 56.7541H115.983L115.979 56.7583Z" fill="white"/>
<path d="M114.679 55.7733V59.341H112.412V57.238H110.038V59.7307H106.766V55.285L103.418 58.3302V60.2019H101.258V55.9703H99.3606V58.5743H97.9395V56.8954H96.0419V57.9405H95.2734V64.6776C95.4752 64.7675 95.6985 64.8189 95.9346 64.8189H116.147V64.6262H117.62V55.7733L116.147 54.4541L114.674 55.7733H114.679Z" fill="#5FD1DD"/>
<path d="M108.367 52.5825H107.83C107.781 52.5825 107.74 52.6228 107.74 52.6725V53.0151C107.74 53.0648 107.781 53.105 107.83 53.105H108.367C108.417 53.105 108.457 53.0648 108.457 53.0151V52.6725C108.457 52.6228 108.417 52.5825 108.367 52.5825Z" fill="#3392FF"/>
<path d="M108.324 52.5823H107.878L107.895 52.261C107.895 52.1925 107.955 52.1411 108.024 52.1411H108.178C108.247 52.1411 108.303 52.1925 108.307 52.261L108.324 52.5823Z" fill="#3392FF"/>
<path d="M109.599 61.5078H106.603C106.548 61.5078 106.504 61.5519 106.504 61.6063V62.0175C106.504 62.0719 106.548 62.116 106.603 62.116H109.599C109.654 62.116 109.698 62.0719 109.698 62.0175V61.6063C109.698 61.5519 109.654 61.5078 109.599 61.5078Z" fill="#3392FF"/>
<path d="M108.792 58.917H107.405C107.351 58.917 107.307 58.9611 107.307 59.0155V59.4267C107.307 59.4811 107.351 59.5252 107.405 59.5252H108.792C108.847 59.5252 108.891 59.4811 108.891 59.4267V59.0155C108.891 58.9611 108.847 58.917 108.792 58.917Z" fill="#3392FF"/>
<path d="M110.05 62.9902C109.14 61.3156 108.633 59.4525 108.556 57.5508L108.371 53.1094H107.835L107.65 57.5508C107.569 59.4525 107.062 61.3156 106.156 62.9902C105.508 64.1852 104.911 64.8234 104.911 64.8234H106.332L106.839 63.7226L106.856 63.6884C107.092 63.2172 107.577 62.9217 108.105 62.9217C108.633 62.9217 109.114 63.2172 109.35 63.6884C109.415 63.8211 109.483 63.9454 109.556 64.0696L109.921 64.8276H111.295C111.295 64.8276 110.698 64.1895 110.05 62.9945V62.9902ZM107.47 62.0266C107.869 60.746 108.101 58.2789 108.101 58.2789C108.101 58.2789 108.337 60.6903 108.745 62.0351C108.14 62.0309 108.105 62.0223 107.47 62.0266Z" fill="#3392FF"/>
<path d="M120.822 55.3618C120.822 55.3618 122.853 54.8136 124.077 56.6681C124.077 56.6681 126.176 56.137 127.133 58.3128C127.133 58.3128 129.155 58.2057 129.705 60.4543C129.705 60.4543 131.688 61.3966 130.937 65.247C129.872 70.7121 118.379 96.0502 118.379 96.0502L104.873 90.8507L114.129 71.7614C114.335 71.3374 114.434 70.8748 114.421 70.408C114.374 68.8875 114.292 65.2769 114.498 63.1569C114.765 60.4157 115.035 58.6169 115.615 57.6404C116.417 56.2869 118.852 57.3877 118.813 59.6191C118.796 60.6984 118.783 61.8848 118.779 62.8228C118.774 63.8593 120.204 64.2276 120.651 63.2896C120.758 63.0626 120.822 62.8014 120.822 62.4887V55.3575V55.3618Z" fill="#E79C91"/>
<path d="M68.0627 34.0712L68.3976 41.0739C68.4234 41.5835 68.5565 42.0761 68.7969 42.5258L70.2651 45.2883C70.5184 45.768 70.3682 46.3634 69.9174 46.6632L68.4448 47.644L68.9171 51.3745C69.3722 54.9593 66.5816 58.133 62.9624 58.1544L59.9528 58.1759L59.8971 67.35L41.5693 66.9046V43.3781L68.0627 34.0669V34.0712Z" fill="#E99E93"/>
<path d="M63.2713 26.4174C63.9883 27.3939 63.6663 28.6188 63.6663 28.6188C63.6663 28.6188 68.2085 26.4816 69.9387 30.7603C70.9991 33.3815 69.4965 35.9171 67.4443 36.7223C65.2848 37.5703 62.2152 36.9964 60.8542 39.1464C60.9745 39.6861 61.129 40.2472 61.129 40.2472C61.451 41.5363 61.3351 42.894 60.7984 44.1104L60.6095 44.5387L61.2707 47.4254L59.1928 47.6953L58.8493 45.2368C58.4801 43.3009 56.4322 42.1916 54.6033 42.9326L54.5304 42.9626C53.0835 43.5493 52.2635 45.0484 52.5426 46.5646C52.607 46.92 52.6757 47.2798 52.7401 47.6267C52.9934 49.0102 53.8821 50.1965 55.14 50.8304C55.711 51.1174 55.8226 51.8883 55.3589 52.3252L52.9032 54.638C51.8213 55.6574 50.3917 56.2227 48.9019 56.2227H42.3934C41.8267 56.2227 41.3545 55.7901 41.3072 55.2248L39.5685 34.4608C39.3753 32.1395 41.2343 30.1564 43.5698 30.1993L44.7547 30.2207C44.7547 30.2207 59.2099 20.8838 63.2713 26.4174Z" fill="#1C3FCA"/>
<path d="M60.6096 44.5386L61.8547 50.1878C62.1123 51.3485 63.6449 51.6269 64.2932 50.629L64.8556 49.7638C65.3107 49.0614 65.9804 48.5303 66.7661 48.2391L68.3846 47.6437L68.9256 50.9888C69.5309 54.7321 66.6502 58.1328 62.8464 58.1585L60.0944 58.1756C59.7123 58.1756 59.4462 57.803 59.5707 57.4475L60.3091 55.3146L58.8408 45.3652L60.601 44.5428L60.6096 44.5386Z" fill="#1C3FCA"/>
<path d="M58.6864 44.59C58.5448 44.59 58.4117 44.4958 58.373 44.3502C58.3301 44.1789 58.4331 44.0033 58.6049 43.9604L69.1404 41.2622C69.3078 41.2193 69.4882 41.3221 69.5311 41.4934C69.574 41.6647 69.471 41.8403 69.2992 41.8832L58.7637 44.5815C58.7379 44.59 58.7122 44.59 58.6821 44.59H58.6864Z" fill="white"/>
<path d="M69.9385 45.0524C69.7925 45.0524 69.6595 44.9496 69.6251 44.804L68.3243 39.0691C68.2856 38.8978 68.393 38.7222 68.569 38.6836C68.745 38.6451 68.9167 38.7522 68.9554 38.9278L70.2562 44.6627C70.2949 44.834 70.1875 45.0096 70.0115 45.0482C69.9858 45.0524 69.9643 45.0567 69.9385 45.0567V45.0524Z" fill="white"/>
<path d="M125.514 77.4152L114.829 72.5026C114.052 72.1471 113.133 72.4641 112.746 73.2265L111.592 75.505L110.926 75.8177C109.243 76.6143 107.874 77.942 107.028 79.5995L100.442 92.5299L95.3889 80.7003C93.3797 75.9976 89.2883 72.4983 84.3253 71.2391L64.0013 66.0781L63.5891 64.4078C63.1684 62.6903 61.67 61.4525 59.9012 61.3583L42.8915 60.4374C40.8823 60.3304 39.1049 61.718 38.7229 63.6882L38.4094 65.3115L21.0391 68.5666C14.2387 69.8429 8.96229 75.2309 7.85035 82.0451L3.44981 108.989C2.39797 115.431 5.27443 121.881 10.7783 125.415L17.9866 130.04V136.679H82.9644L82.9129 113.525L91.1 127.543C96.239 136.345 109.381 135.009 112.635 125.35L125.278 87.7972C125.738 86.4266 125.836 84.9618 125.566 83.5442L125.304 82.195L126.343 79.4154C126.635 78.6402 126.274 77.7707 125.519 77.4238L125.514 77.4152Z" fill="white"/>
<path d="M106.032 104.501C105.907 104.501 105.791 104.428 105.74 104.312L100.262 92.0929C100.189 91.9301 100.262 91.7417 100.425 91.6689C100.584 91.5961 100.777 91.6689 100.85 91.8316L106.328 104.051C106.401 104.214 106.328 104.402 106.165 104.475C106.122 104.492 106.079 104.505 106.032 104.505V104.501Z" fill="#BDDCFF"/>
<path d="M19.0896 106.749C18.9135 106.749 18.7676 106.604 18.7676 106.428V89.2021C18.7676 89.0265 18.9135 88.8809 19.0896 88.8809C19.2656 88.8809 19.4116 89.0265 19.4116 89.2021V106.428C19.4116 106.604 19.2656 106.749 19.0896 106.749Z" fill="#97E5F2"/>
<path d="M59.584 66.7765C59.584 66.7765 59.5711 66.7765 59.5668 66.7765L38.397 65.6286C38.221 65.62 38.0836 65.4659 38.0922 65.2903C38.1008 65.1146 38.2339 64.9733 38.4314 64.9862L59.6012 66.134C59.7772 66.1426 59.9146 66.2968 59.906 66.4724C59.8974 66.6437 59.7557 66.7765 59.584 66.7765Z" fill="#BDDCFF"/>
<path d="M30.1445 67.1017L29.0584 74.5027L19.3857 75.6891L20.5363 68.8577C20.6351 68.2581 21.0944 67.787 21.6912 67.6628L29.1142 66.1337C29.7023 66.0138 30.2304 66.5106 30.1445 67.1017Z" fill="#8062F6"/>
<path d="M77.4259 70.04L65.3921 76.3061L52.4609 73.9761L66.8088 66.8107C67.5988 66.4166 68.5047 66.3138 69.359 66.528L77.237 68.4725C77.9926 68.6609 78.1172 69.6803 77.4259 70.04Z" fill="#8062F6"/>
<path d="M29.7627 72.8196H33.369L34.1546 70.3569C34.3693 69.6716 34.7428 69.0763 35.2322 68.5923C36.0179 67.8213 37.0998 67.3545 38.2632 67.3545H34.6526C33.4935 67.3545 32.4159 67.8213 31.6302 68.5923C31.1408 69.0763 30.7673 69.6716 30.5483 70.3569L29.767 72.8196H29.7627Z" fill="#5D49D3"/>
<path d="M31.626 68.5923H41.7966C42.6252 68.5923 43.4066 69.0977 43.6642 69.8772V69.8943L44.6043 72.8196H48.215L47.425 70.0142C46.9785 68.4381 45.5403 67.3545 43.896 67.3545H34.6484C33.4892 67.3545 32.4116 67.8213 31.626 68.5923Z" fill="#E77FDD"/>
<path d="M63.8509 71.7788V71.8045L61.7258 136.675H22.6833C13.1825 136.675 5.48047 129.004 5.48047 119.543V82.3535C6.46791 76.2974 11.74 71.7788 17.9823 71.7788H63.8509Z" fill="#8062F6"/>
<path d="M79.0701 136.675H50.9023L53.5341 82.2893C53.8046 76.6614 58.2781 72.1814 63.8464 71.8045C64.0954 71.7874 64.3487 71.7788 64.6063 71.7788H65.3576C71.2779 71.7788 76.1507 76.4044 76.4341 82.2893L79.0658 136.675H79.0701Z" fill="#5D49D3"/>
<path d="M4.68652 99.4085L5.21888 94.7058C6.06893 87.2148 12.4315 81.5527 20.0047 81.5527H34.6574C42.8145 81.5527 49.2243 88.4997 48.5374 96.5903L48.2755 99.6569C47.9836 103.088 45.1028 105.726 41.6425 105.726H10.3536C6.94905 105.726 4.30013 102.775 4.68222 99.4085H4.68652Z" fill="#5D49D3"/>
<path d="M46.0037 122.545L45.012 136.674H33.3559C28.3501 136.674 26.6628 134.546 23.5245 131.149L13.3195 124.579C13.7875 119.971 5.84075 116.467 10.4903 116.467H40.3195C43.6253 116.467 46.2442 119.256 46.008 122.545H46.0037Z" fill="#5D49D3"/>
<path d="M75.902 124.836V136.674H54.8652V124.836C54.8652 123.83 55.6852 123.012 56.6984 123.012H74.0688C75.0777 123.012 75.902 123.83 75.902 124.836Z" fill="#8062F6"/>
<path d="M0.0410142 99.4085L0.521852 95.1641C1.40196 87.4119 7.98776 81.5527 15.8272 81.5527H29.4452C37.9071 81.5527 44.5573 88.761 43.8447 97.1557L43.63 99.6612C43.3381 103.092 40.4573 105.73 36.997 105.73H5.70806C2.30354 105.73 -0.345379 102.779 0.0367168 99.4128L0.0410142 99.4085Z" fill="#E77FDD"/>
<path d="M41.5559 122.545L40.5642 136.674H22.6873C13.1864 136.674 5.48438 129.004 5.48438 119.542V116.484C5.66469 116.472 5.85361 116.467 6.03822 116.467H35.8631C39.1689 116.467 41.7878 119.256 41.5559 122.545Z" fill="#E77FDD"/>
<path d="M27.8913 47.8583C27.2216 47.8583 26.6334 47.3786 26.5347 46.7148C25.6117 40.4745 19.9446 35.6689 13.0755 35.6689C10.3193 35.6689 7.75618 36.4442 5.61816 37.7762V53.1435H30.9567C33.2493 53.1435 34.0607 50.124 32.0815 48.9719C30.8708 48.2652 29.4412 47.8583 27.9128 47.8583H27.8871H27.8913Z" fill="#CFF7F9"/>
<path d="M41.6251 121.791H5.61789C5.44187 121.791 5.2959 121.646 5.2959 121.47C5.2959 121.295 5.44187 121.149 5.61789 121.149H41.6251C41.8011 121.149 41.9471 121.295 41.9471 121.47C41.9471 121.646 41.8011 121.791 41.6251 121.791Z" fill="#5D49D3"/>
<path d="M24.1341 87.8955H18.6474C17.9954 87.8955 17.4668 88.4228 17.4668 89.0733V90.9107C17.4668 91.5612 17.9954 92.0885 18.6474 92.0885H24.1341C24.7862 92.0885 25.3148 91.5612 25.3148 90.9107V89.0733C25.3148 88.4228 24.7862 87.8955 24.1341 87.8955Z" fill="#8062F6"/>
</svg>
