<svg width="200" height="137" viewBox="0 0 200 137" fill="none" xmlns="http://www.w3.org/2000/svg">
<path d="M163.391 137H33.2352C23.076 137 14.4574 130.178 12.9895 120.974L0.219025 40.9968C-1.5202 30.1159 7.3067 20.2109 19.2972 19.581L163.367 12.0313C175.203 11.4103 185.139 20.1044 184.999 30.9587L183.86 118.485C183.724 128.745 174.607 136.996 163.401 136.996L163.391 137Z" fill="#94E2EF"/>
<path d="M51.1699 27.124H110.652C114.673 27.124 117.937 30.3823 117.937 34.3971V43.8326C117.937 47.8473 114.673 51.1056 110.652 51.1056H51.1699V27.124Z" fill="#3392FF"/>
<path d="M51.505 27.124H50.291C46.2681 27.124 43.0068 30.3803 43.0068 34.3971V43.8326C43.0068 47.8494 46.2681 51.1056 50.291 51.1056H51.505C55.528 51.1056 58.7892 47.8494 58.7892 43.8326V34.3971C58.7892 30.3803 55.528 27.124 51.505 27.124Z" fill="#0967D5"/>
<path d="M51.0778 47.5415C48.305 47.5415 46.0469 45.2869 46.0469 42.5183V36.6756C46.0469 33.907 48.305 31.6523 51.0778 31.6523H55.3123C57.7501 31.6523 59.7363 33.6355 59.7363 36.0695C59.7363 36.2877 59.5566 36.4671 59.3381 36.4671C59.1195 36.4671 58.9398 36.2877 58.9398 36.0695C58.9398 34.0718 57.3131 32.4475 55.3123 32.4475H51.0778C48.7469 32.4475 46.8481 34.3434 46.8481 36.6756V42.5183C46.8481 44.8505 48.7469 46.7415 51.0778 46.7415C53.4087 46.7415 55.3075 44.8456 55.3075 42.5183V38.7363C55.3075 37.4126 54.2294 36.3313 52.8988 36.3313C51.5683 36.3313 50.4902 37.4077 50.4902 38.7363V42.4358C50.4902 42.654 50.3106 42.8334 50.092 42.8334C49.8735 42.8334 49.6938 42.654 49.6938 42.4358V38.7363C49.6938 36.9714 51.1312 35.5361 52.8988 35.5361C54.6665 35.5361 56.1039 36.9714 56.1039 38.7363V42.5183C56.1039 45.2869 53.8458 47.5415 51.0729 47.5415H51.0778Z" fill="#3392FF"/>
<path d="M76.2671 136.636H19.6982L23.622 92.5231C24.0105 88.1496 26.3463 84.1785 29.9883 81.7154L36.2333 77.4873L71.7266 75.48L76.2671 136.636Z" fill="#C94EBD"/>
<path d="M105.948 136.636H26.832L32.3194 74.9416C32.8633 68.8225 36.1315 63.2708 41.2256 59.8234L49.9568 53.908L99.6009 51.1006L105.948 136.631V136.636Z" fill="#C94EBD"/>
<path d="M31.4645 84.9249C31.4645 84.9249 31.4451 84.9249 31.4305 84.9249C31.2314 84.9055 31.0809 84.7309 31.1003 84.5321L31.4645 80.4447C31.484 80.2459 31.6588 80.0956 31.8579 80.115C32.057 80.1344 32.2075 80.3089 32.1881 80.5077L31.8239 84.5952C31.8093 84.7843 31.6491 84.9249 31.4597 84.9249H31.4645Z" fill="#E77FDD"/>
<path d="M38.3984 74.195C38.1993 74.195 38.0342 74.0302 38.0342 73.8314V68.5075C38.0342 65.2686 39.2676 62.1945 41.5015 59.8478L43.2156 58.0489C43.3565 57.9034 43.5847 57.8986 43.7304 58.0343C43.8761 58.175 43.8809 58.4028 43.745 58.5483L42.0308 60.3472C39.9232 62.5582 38.7626 65.4577 38.7626 68.5075V73.8314C38.7626 74.0302 38.5975 74.195 38.3984 74.195Z" fill="#E77FDD"/>
<path d="M127.999 136.636H39.3652L44.7992 63.4308C45.314 56.4827 51.1122 51.1055 58.0904 51.1055H109.274C116.252 51.1055 122.05 56.4827 122.565 63.4308L127.999 136.636Z" fill="#E77FDD"/>
<path d="M170.233 82.1661C170.233 82.1661 171.539 81.0849 174.021 79.2036C176.502 77.3223 175.259 75.344 173.302 75.4895C170.52 75.6931 167.15 77.3611 164.362 78.8157C160.37 80.8958 147.633 92.4502 147.633 92.4502L158.088 102.729L164.182 94.2151C164.712 93.4781 165.547 93.0224 166.45 92.9836C168.961 92.872 178.935 91.655 182.296 90.1519C186.904 88.0912 190.847 84.4208 189.371 82.9565C188.414 82.011 186.88 83.0438 186.88 83.0438C187.205 82.1564 186.987 81.657 186.574 81.3613C185.175 80.3479 183.286 82.3068 183.286 82.3068L183.267 82.3504C183.961 80.8037 182.621 79.96 181.15 80.8231C181.15 80.8231 178.498 82.3455 177.969 82.5201C177.969 82.5201 171.151 82.8353 170.131 82.2389L170.233 82.171V82.1661Z" fill="#E79C91"/>
<path d="M172.782 82.9416H172.773C169.306 82.8398 166.79 80.6094 166.683 80.5173C166.533 80.3815 166.523 80.1536 166.654 80.0033C166.79 79.853 167.018 79.8433 167.169 79.9742C167.193 79.9936 169.597 82.1222 172.792 82.2143C172.991 82.2192 173.152 82.3889 173.147 82.5877C173.142 82.7865 172.977 82.9416 172.782 82.9416Z" fill="#D37570"/>
<path d="M171.719 89.1673C171.559 89.1673 171.413 89.0606 171.37 88.9006C171.316 88.7067 171.428 88.5079 171.622 88.4546C176.061 87.2327 180.883 85.5114 183.034 81.9767C183.136 81.807 183.364 81.7488 183.534 81.8555C183.704 81.9622 183.763 82.1852 183.656 82.3549C181.373 86.1078 176.391 87.897 171.817 89.1576C171.783 89.1673 171.753 89.1722 171.719 89.1722V89.1673Z" fill="#D37570"/>
<path d="M168.208 85.6763C167.785 85.6763 167.363 85.5842 166.965 85.3951C166.061 84.9684 164.605 84.6096 162.808 85.2884C162.618 85.3563 162.41 85.2642 162.337 85.0799C162.264 84.8908 162.361 84.6823 162.546 84.6096C164.687 83.795 166.426 84.3429 167.271 84.7357C167.805 84.9878 168.402 85.0169 168.956 84.8132C169.266 84.7017 170.039 84.4932 171.112 84.2072C173.346 83.6156 176.725 82.7186 178.1 82.0398C178.279 81.9525 178.498 82.0252 178.585 82.2047C178.673 82.3841 178.6 82.6022 178.42 82.6895C176.978 83.3974 173.559 84.3041 171.296 84.9054C170.281 85.1769 169.48 85.3854 169.203 85.4872C168.878 85.6084 168.538 85.6666 168.198 85.6666L168.208 85.6763Z" fill="#D37570"/>
<path d="M178.634 90.3313C178.489 90.3313 178.353 90.244 178.294 90.1034C178.222 89.9192 178.314 89.7058 178.498 89.6331C181.247 88.547 184.972 86.1081 186.424 82.8158C186.506 82.6316 186.72 82.5492 186.904 82.6316C187.089 82.714 187.171 82.9274 187.089 83.1116C185.55 86.6027 181.64 89.1725 178.766 90.3119C178.722 90.3313 178.678 90.3361 178.63 90.3361L178.634 90.3313Z" fill="#D37570"/>
<path d="M79.3604 33.5192C79.3798 31.7106 80.8269 30.1445 82.6334 30.1785C83.3375 30.193 83.9542 30.4257 84.4593 30.8136L84.4884 30.7991L85.4111 19.8798C85.4111 19.8798 85.4159 19.8653 85.4256 19.8653L107.958 19.458C107.958 19.458 107.973 19.4629 107.973 19.4726L106.642 42.3923C106.491 44.967 105.078 46.5864 103.029 47.8374C103.029 47.8374 101.461 48.6471 102.116 48.5986L102.49 59.9785C102.32 65.5109 98.2652 72.9924 92.4379 72.653C86.5814 72.3136 82.4197 62.0731 82.9976 56.245L83.8863 38.8625L83.8717 38.8479C82.2983 38.6443 79.3215 37.1654 79.3652 33.5192H79.3604Z" fill="#E79C91"/>
<path d="M101.193 57.3702L103.427 55.4695L100.455 78.4232L79.3407 77.1916C78.5929 77.148 76.2959 68.7161 76.3008 67.9694L81.8562 54.7422L86.4986 58.0296C90.9711 61.1958 97.0218 60.9243 101.193 57.3702Z" fill="white"/>
<path d="M102.436 31.2935C102.436 31.2935 102.412 31.2935 102.402 31.2935L99.0028 30.9783C98.8037 30.9589 98.6532 30.7844 98.6726 30.5807C98.692 30.3819 98.8717 30.2365 99.0708 30.251L102.47 30.5662C102.669 30.5856 102.82 30.7601 102.8 30.9638C102.781 31.1529 102.625 31.2935 102.436 31.2935Z" fill="white"/>
<path d="M91.3885 22.9831L91.0437 25.1747C90.762 26.9881 89.6063 28.5446 87.9503 29.3398C87.387 29.6113 87.0374 30.1834 87.0568 30.8089L87.1394 33.9218L84.8376 33.6842L83.1865 21.0873C82.8369 18.4157 85.0755 16.1125 87.7658 16.3889L89.9948 16.6168C98.9203 7.91339 110.274 12.3306 107.287 18.212C109.618 18.2799 112.503 21.2085 111.303 24.9032C110.123 28.5349 105.967 28.4234 102.703 26.3142C98.6484 23.6959 94.8703 21.3006 91.3885 22.9831Z" fill="#1C3FC8"/>
<path d="M105.948 38.5086C103.495 38.5086 101.402 36.6273 101.189 34.1448C101.077 32.8745 101.47 31.638 102.296 30.6635C103.121 29.6889 104.272 29.0925 105.544 28.981C108.181 28.7531 110.493 30.7071 110.716 33.3302C110.828 34.6006 110.435 35.837 109.609 36.8116C108.784 37.7862 107.633 38.3826 106.36 38.4941C106.219 38.5038 106.084 38.5135 105.948 38.5135V38.5086ZM101.912 34.0818C102.101 36.3025 104.078 37.9607 106.297 37.7668C107.375 37.6747 108.351 37.1656 109.051 36.3413C109.75 35.5121 110.08 34.4648 109.988 33.3884C109.794 31.1677 107.822 29.5192 105.603 29.7034C104.525 29.7955 103.544 30.3047 102.849 31.1289C102.15 31.9581 101.82 33.0054 101.912 34.0818Z" fill="white"/>
<path d="M143.184 91.6015L137.653 97.9145L135.71 75.4796C135.055 67.8914 129.417 61.6706 121.919 60.2644L102.378 56.594C102.378 56.594 101.732 58.6256 100.067 63.6876C98.3378 68.9242 91.2576 69.7388 88.3827 65.0307C83.0459 56.2691 82.9342 56.0024 82.9342 56.0024L56.3178 59.8474C50.4613 60.6911 45.1973 63.8767 41.7301 68.6672L15.9101 104.368C7.96068 115.36 17.4204 130.43 30.7941 128.078L81.0792 119.229L82.2398 103.481L51.6268 97.2793V136.646H136.662L161.526 105.997C162.443 104.868 162.982 103.476 163.07 102.021L163.245 99.0685L165.046 96.5084C165.522 95.8344 165.396 94.9035 164.76 94.3798L154.78 86.1274C154.13 85.5891 153.173 85.657 152.6 86.2777L149.885 89.2305H148.433C146.418 89.2305 144.505 90.0984 143.179 91.6112L143.184 91.6015Z" fill="#8062F6"/>
<path d="M139.319 113.421C139.134 113.421 138.974 113.28 138.955 113.091L137.517 97.614C137.498 97.4152 137.648 97.2358 137.848 97.2164C138.047 97.2018 138.226 97.3424 138.246 97.5461L139.683 113.023C139.703 113.222 139.552 113.401 139.353 113.421C139.343 113.421 139.329 113.421 139.319 113.421Z" fill="#5D49D3"/>
<path d="M54.0303 136.636L80.2678 115.612C84.3567 112.335 85.9252 106.836 84.177 101.9L66.7242 52.4146L75.7759 57.6851L90.8493 99.7135C93.525 107.374 91.0776 115.889 84.7403 120.965L65.1847 136.636H54.0303Z" fill="#E77FDD"/>
<path d="M93.3599 107.956C95.4043 105.842 93.3064 104.334 92.476 104.465C92.476 104.465 93.6027 101.847 90.8832 101.217C89.946 100.998 86.6924 101.095 84.0652 101.59L82.9872 98.54L80.2775 101.343C79.3645 102.288 78.1894 102.933 76.9025 103.204L73.5906 103.893L69.4678 108.281L70.0651 118.386C70.0651 118.386 86.9789 116.315 91.534 114.449C94.7536 113.13 93.5735 111.316 93.5735 111.316C95.516 109.328 93.3696 107.956 93.3696 107.956H93.3599Z" fill="#E79C91"/>
<path d="M88.3001 104.858C88.1253 104.858 87.9699 104.732 87.9408 104.557C87.9068 104.359 88.0427 104.174 88.237 104.14C90.5582 103.748 92.4181 103.864 92.4958 103.869C92.6949 103.883 92.8503 104.053 92.8357 104.257C92.8211 104.46 92.6755 104.606 92.4472 104.596C92.4278 104.596 90.5922 104.48 88.3584 104.858C88.339 104.858 88.3195 104.863 88.2953 104.863L88.3001 104.858Z" fill="#D37570"/>
<path d="M89.1015 108.844C88.9121 108.844 88.7519 108.698 88.7373 108.504C88.7227 108.306 88.8733 108.131 89.0772 108.116C89.7085 108.073 93.2292 107.724 93.2632 107.719C93.4623 107.695 93.642 107.845 93.6614 108.044C93.6808 108.243 93.5352 108.422 93.3361 108.441C93.1904 108.456 89.7717 108.795 89.1306 108.844C89.1209 108.844 89.1112 108.844 89.1064 108.844H89.1015Z" fill="#D37570"/>
<path d="M89.4892 112.325C89.2998 112.325 89.1395 112.174 89.125 111.985C89.1104 111.786 89.2658 111.612 89.4649 111.597C90.3098 111.544 93.4663 110.967 93.5003 110.957C93.6945 110.919 93.8888 111.054 93.9228 111.248C93.9616 111.447 93.8305 111.636 93.6314 111.67C93.5003 111.694 90.3973 112.262 89.5135 112.32C89.5037 112.32 89.4989 112.32 89.4892 112.32V112.325Z" fill="#D37570"/>
<path d="M83.1714 102.002C82.7246 102.002 82.5304 101.944 82.4915 101.934C82.3021 101.871 82.1953 101.667 82.2584 101.478C82.3216 101.289 82.5207 101.183 82.71 101.241C82.7343 101.246 83.2831 101.376 84.7739 101.1C84.973 101.061 85.1624 101.192 85.1964 101.391C85.2352 101.59 85.1041 101.779 84.905 101.813C84.1135 101.958 83.5502 102.002 83.1714 102.002Z" fill="#D37570"/>
<path d="M77.0682 117.242L75.7474 104.228C75.66 103.374 74.9121 102.744 74.0526 102.807L70.0074 103.103L68.6672 102.06C67.2735 100.974 65.5204 100.46 63.7625 100.616L15.5704 104.863L12.3508 109.527C6.11558 118.565 13.5454 130.702 24.4426 129.286L67.1958 123.729C69.1139 123.482 70.8427 122.444 71.9693 120.873L72.7657 119.763L75.9028 118.934C76.6555 118.735 77.1557 118.017 77.0731 117.242H77.0682Z" fill="#8062F6"/>
<path d="M75.7471 104.596C75.5625 104.596 75.4023 104.456 75.3828 104.271C75.3149 103.607 74.7467 103.122 74.0766 103.176L70.0314 103.471C69.944 103.471 69.8517 103.452 69.7789 103.394L68.4386 102.351C67.1129 101.319 65.4667 100.834 63.7864 100.979L37.4129 103.302C37.2235 103.321 37.0341 103.171 37.0196 102.972C37.005 102.773 37.1507 102.594 37.3498 102.579L63.7233 100.257C65.5832 100.097 67.414 100.635 68.8854 101.779L70.1188 102.739L74.028 102.453C75.1012 102.385 76.0044 103.142 76.1113 104.199C76.1307 104.397 75.985 104.577 75.7859 104.596C75.7713 104.596 75.7616 104.596 75.7471 104.596Z" fill="#5D49D3"/>
<path d="M77.0677 117.605C76.8832 117.605 76.7229 117.465 76.7035 117.28L75.3826 104.266C75.3632 104.068 75.5089 103.888 75.708 103.869C75.9071 103.845 76.0867 103.995 76.1062 104.194L77.427 117.208C77.4465 117.406 77.3008 117.586 77.1017 117.605C77.0871 117.605 77.0774 117.605 77.0628 117.605H77.0677Z" fill="#5D49D3"/>
<path d="M51.4666 126.134C51.2869 126.134 51.1315 125.998 51.1072 125.819C51.0829 125.62 51.2238 125.436 51.4229 125.412L67.1421 123.37C68.9534 123.133 70.6045 122.149 71.668 120.665L72.4644 119.555C72.513 119.487 72.5858 119.438 72.6684 119.414L75.8054 118.585C76.3881 118.43 76.7718 117.882 76.7087 117.281C76.6892 117.082 76.8349 116.902 77.034 116.883C77.238 116.859 77.4128 117.009 77.4322 117.208C77.5293 118.168 76.9223 119.041 75.9899 119.288L72.9792 120.083L72.2604 121.087C71.0804 122.735 69.2497 123.831 67.2344 124.093L51.5151 126.134C51.5151 126.134 51.4811 126.134 51.4666 126.134Z" fill="#5D49D3"/>
<path d="M111.513 86.661V79.5723H82.5508V86.661H111.513Z" fill="#E77FDD"/>
<path d="M199.627 49.6361C199.627 64.6282 187.457 76.779 172.442 76.779C157.427 76.779 145.258 64.6282 145.258 49.6361C145.258 42.0527 148.375 35.1918 153.397 30.2656C153.479 30.4983 153.62 30.7117 153.819 30.8862L153.984 31.0317C154.591 31.5747 155.499 31.599 156.145 31.0996L157.563 29.9941C158.199 29.4995 158.394 28.617 158.025 27.8994L157.991 27.8315C157.821 27.5018 157.553 27.2642 157.243 27.1236C161.584 24.1999 166.809 22.4883 172.442 22.4883C187.457 22.4883 199.627 34.6391 199.627 49.6312V49.6361Z" fill="#3392FF"/>
<path d="M172.918 26.76L169.315 27.9479C168.421 28.2437 167.804 29.0583 167.77 29.9941L167.693 32.1033C167.664 32.8257 167.173 33.4512 166.479 33.65L165.187 34.0185C164.468 34.227 163.696 33.9264 163.303 33.2912L161.88 30.9978C161.185 29.8729 160.816 28.5783 160.816 27.2546V25.0969C164.342 23.429 168.285 22.4932 172.442 22.4932C172.976 22.4932 173.505 22.5077 174.03 22.5417L174.399 24.1514C174.656 25.2715 174.015 26.4061 172.923 26.7649L172.918 26.76Z" fill="#1FC691"/>
<path d="M157.558 29.994L156.14 31.0995C155.499 31.6037 154.591 31.5746 153.979 31.0316L153.814 30.8861C153.615 30.7116 153.474 30.4934 153.392 30.2655C154.572 29.1067 155.858 28.0545 157.238 27.1235C157.548 27.2593 157.816 27.5017 157.985 27.8314L158.019 27.8993C158.389 28.6169 158.194 29.4945 157.558 29.994Z" fill="#1FC691"/>
<path d="M159.448 38.9156L159.122 39.638C158.865 40.2053 158.316 40.5835 157.695 40.6175L156.087 40.7144C155.509 40.7484 154.956 40.9569 154.499 41.306L151.848 43.3376C151.173 43.8564 150.634 44.5255 150.275 45.2916L149.381 47.202C149.056 47.8954 148.303 48.2784 147.55 48.1329L147.225 48.0699C146.676 47.9681 146.21 47.5899 145.991 47.0759L145.511 45.9268C146.229 40.6757 148.449 35.9045 151.727 32.0547C152.324 32.1032 152.907 32.3214 153.407 32.6996L158.938 36.8937C159.559 37.364 159.773 38.2028 159.453 38.9107L159.448 38.9156Z" fill="#1FC691"/>
<path d="M162.395 67.552L156.898 71.911C150.051 67.1399 145.506 59.2996 145.263 50.3877L148.414 54.3054C148.89 54.897 149.633 55.2073 150.386 55.1249L152.416 54.9164C152.935 54.863 153.45 55.057 153.809 55.4352L154.47 56.1334C154.761 56.4437 154.926 56.851 154.926 57.2825V58.1941L156.179 61.0887C156.543 61.9276 157.33 62.4997 158.238 62.5821L160.744 62.8149C161.404 62.8779 161.982 63.2852 162.259 63.8816L162.924 65.312C163.284 66.0926 163.07 67.0187 162.395 67.552Z" fill="#1FC691"/>
<path d="M186.894 66.0489L175.307 74.088C174.234 74.8347 172.791 74.7329 171.825 73.8504L170.48 72.6189C169.62 71.8285 169.339 70.5873 169.785 69.506L172.112 63.8427C172.51 62.8778 172.481 61.7917 172.034 60.8511L170.883 58.417C170.626 57.8691 170.193 57.4182 169.654 57.137L165.823 55.1296C165.06 54.732 164.531 54.0096 164.376 53.1659L164.109 51.721C163.914 50.6688 164.492 49.6312 165.488 49.2385L167.751 48.356C168.353 48.1184 168.887 47.7305 169.29 47.2263L169.649 46.7802C170.436 45.8056 171.772 45.4759 172.923 45.9656L182.183 49.9173C183.169 50.3391 183.985 51.0713 184.509 52.0071L185.466 53.7187C185.879 54.4605 185.835 55.3672 185.354 56.0703L184.524 57.2776C184.203 57.7431 184.14 58.3443 184.359 58.868L184.805 59.9347C184.98 60.3565 185.257 60.7299 185.607 61.0159L187.049 62.199C188.287 63.2173 188.21 65.1325 186.889 66.0489H186.894Z" fill="#1FC691"/>
<path d="M172.578 30.8184L170.543 30.4159C170.058 30.3189 169.762 29.8292 169.902 29.354L169.98 29.0874C170.116 28.6316 170.606 28.3795 171.058 28.5346L173.015 29.2037C173.52 29.3783 173.739 29.965 173.467 30.4256C173.287 30.7311 172.933 30.8911 172.583 30.8184H172.578Z" fill="#1FC691"/>
<path d="M199.627 49.6361C199.627 50.8143 199.554 51.9683 199.408 53.1077C198.534 53.1514 197.772 53.7283 197.51 54.5672L196.873 56.56C196.689 57.137 196.203 57.5734 195.611 57.6897L194.173 57.9806C193.411 58.1358 192.644 57.7479 192.318 57.0448L189.026 49.9367C188.341 48.4578 187.19 47.2456 185.743 46.4844L180.533 43.74C179.843 43.3764 179.051 43.2358 178.279 43.3425L176.75 43.5558C175.584 43.7158 174.414 43.3231 173.583 42.4842L171.306 40.1811C170.616 39.4829 170.675 38.3435 171.432 37.718L171.777 37.4319C172.447 36.884 173.423 36.9276 174.035 37.5434L175.982 39.4974C176.162 39.6768 176.39 39.7593 176.619 39.7593C176.963 39.7593 177.303 39.5653 177.454 39.2065C177.735 38.5374 178.415 38.1253 179.139 38.1883L184.33 38.6198C184.937 38.6683 185.423 38.1398 185.326 37.5434L185.214 36.8598C185.131 36.3555 184.655 36.0161 184.15 36.0937L183.301 36.2294C182.509 36.3555 181.747 35.9046 181.465 35.153L181.164 34.3384C180.858 33.5093 181.251 32.5832 182.067 32.2293L187.637 29.8001C188.623 29.3685 189.696 29.2861 190.701 29.5188C196.189 34.4887 199.632 41.66 199.632 49.6361H199.627Z" fill="#1FC691"/>
<path d="M176.997 42.6443C176.842 42.6443 176.696 42.5425 176.648 42.3873C176.589 42.1934 176.696 41.9897 176.891 41.9315C178.41 41.466 179.906 40.9569 181.339 40.409C191.09 36.6852 198.447 30.6535 197.398 27.2303C196.762 25.1502 194.169 24.5199 189.473 25.3005C189.278 25.3345 189.089 25.1987 189.055 24.9999C189.021 24.8011 189.157 24.6169 189.356 24.5829C194.474 23.7295 197.335 24.5247 198.097 27.017C199.272 30.8571 191.872 37.1701 181.601 41.0879C180.154 41.6406 178.639 42.1594 177.104 42.6249C177.07 42.6346 177.031 42.6394 176.997 42.6394V42.6443Z" fill="#79F1F7"/>
<path d="M141.712 65.3508C136.682 65.3508 133.302 64.2453 132.486 61.981C131.583 59.4597 134.156 55.028 141.946 50.8193C142.125 50.7223 142.344 50.7902 142.441 50.9648C142.538 51.1442 142.47 51.3623 142.295 51.4593C133.807 56.0462 132.617 60.187 133.175 61.7385C134.851 66.403 150.555 65.2296 167.474 59.1784C167.659 59.1106 167.872 59.2075 167.94 59.3966C168.008 59.5857 167.911 59.7942 167.722 59.8621C157.606 63.4792 148.263 65.3508 141.717 65.3508H141.712Z" fill="white"/>
<path d="M122.332 120.733L116.694 107.341C115.281 103.985 114.499 100.397 114.382 96.7607L112.969 51.731H105.947L107.506 96.5765C107.691 101.876 108.914 107.088 111.109 111.923L122.332 136.636V120.733Z" fill="#E77FDD"/>
<path d="M122.332 137C122.133 137 121.968 136.835 121.968 136.636V81.9916C121.968 81.7928 122.133 81.6279 122.332 81.6279C122.531 81.6279 122.696 81.7928 122.696 81.9916V136.636C122.696 136.835 122.531 137 122.332 137Z" fill="#5D49D3"/>
<path d="M52.8945 101.808C52.6954 101.808 52.5303 101.644 52.5303 101.445V82.5785C52.5303 82.3797 52.6954 82.2148 52.8945 82.2148C53.0936 82.2148 53.2587 82.3797 53.2587 82.5785V101.445C53.2587 101.644 53.0936 101.808 52.8945 101.808Z" fill="#5D49D3"/>
<path d="M190.24 53.5638C190.133 53.4038 190.186 53.1856 190.356 53.0886C197.359 49.1369 197.966 47.8084 197.344 46.7611C196.902 46.0095 195.339 46.058 194.8 46.0968C194.669 46.1065 194.542 46.0968 194.416 46.0725L193.542 45.898C191.716 45.5295 189.822 45.7913 188.166 46.635L186.165 47.6532L185.301 48.4048L184.898 47.3526L182.125 49.2581L162.487 42.4166C161.705 42.1451 160.836 42.3051 160.205 42.8385L159.826 43.1585C159.501 43.4349 159.539 43.8179 159.821 43.9731C163.138 45.7719 175.968 53.6801 175.968 53.6801L171.99 55.8572C171.597 56.0705 171.112 55.9687 170.84 55.6148L169.514 53.8983C169.325 53.651 168.985 53.5638 168.698 53.6898L168.212 53.8983C167.97 54.005 167.809 54.2426 167.8 54.5093L167.703 57.9179L164.201 57.4767C163.818 57.4282 163.434 57.5688 163.167 57.8549L163.041 57.9906C162.88 58.1603 162.958 58.4415 163.182 58.5094L172.68 61.4526C172.85 61.5059 173.039 61.4526 173.151 61.3071L173.248 61.1859C173.467 60.9095 173.462 60.5168 173.229 60.2453L172.564 59.484C172.476 59.3822 172.525 59.2222 172.656 59.1834L180.634 57.113C182.261 56.6912 183.966 56.7057 185.583 57.1615L198.359 60.7301C198.655 60.8126 198.976 60.7544 199.228 60.575L199.593 60.3083C200.171 59.8865 200.127 59.0137 199.505 58.65L193.945 55.4063L195.402 54.3687L194.037 51.7261L190.677 53.6656C190.521 53.7529 190.327 53.7092 190.23 53.5589L190.24 53.5638Z" fill="white"/>
<path d="M183.087 50.3926L184.602 49.4617L186.2 49.6265L185.292 50.4217C185.02 50.6593 185.024 51.0811 185.292 51.3139C185.889 51.8278 186.739 51.9248 187.433 51.5563L193.639 48.2641C194.368 47.8762 195.237 47.881 195.96 48.2689C196.383 48.4968 196.441 49.0786 196.072 49.389C195.009 50.2811 193.226 51.4545 190.352 53.074C190.182 53.1709 190.128 53.3891 190.235 53.5491L190.318 53.6558L191.289 54.2861C191.541 54.451 191.862 54.4752 192.139 54.354L193.838 53.5976L195.033 54.6255L193.945 55.3965L193.615 55.6438C193.421 55.7844 193.435 56.0801 193.649 56.2014C193.649 56.2014 198.073 58.65 199.52 59.4597C199.831 59.6342 199.884 60.0803 199.598 60.2888H199.593L199.229 60.5603C198.976 60.7446 198.66 60.8028 198.359 60.7155L185.583 57.1469C183.966 56.6959 182.257 56.6814 180.635 57.0984L172.656 59.1688C172.525 59.2027 172.471 59.3627 172.564 59.4694L173.229 60.2306C173.462 60.4973 173.472 60.8949 173.248 61.1713L173.151 61.2925C173.04 61.4331 172.85 61.4913 172.68 61.4379L163.182 58.4948C162.958 58.4269 162.881 58.1457 163.041 57.976L163.167 57.8402C163.429 57.5541 163.813 57.4135 164.201 57.462L165.619 57.6414L167.698 57.9033V57.8936L169.961 58.1651C170.738 58.2572 171.525 58.1214 172.224 57.7675L176.444 55.6244C177.133 55.2995 177.162 54.3298 176.497 53.9613L175.963 53.6655L159.816 43.9584L160.36 43.5123C160.841 43.1196 161.497 43.0081 162.079 43.2214L181.97 50.509C182.339 50.6399 182.747 50.5914 183.077 50.3781L183.087 50.3926Z" fill="#79F1F7"/>
<path d="M185.476 49.9225C186.128 49.9225 186.656 49.306 186.656 48.5455C186.656 47.785 186.128 47.1685 185.476 47.1685C184.824 47.1685 184.296 47.785 184.296 48.5455C184.296 49.306 184.824 49.9225 185.476 49.9225Z" fill="white"/>
<path d="M185.476 49.4034C185.859 49.4034 186.17 49.0192 186.17 48.5452C186.17 48.0712 185.859 47.687 185.476 47.687C185.092 47.687 184.781 48.0712 184.781 48.5452C184.781 49.0192 185.092 49.4034 185.476 49.4034Z" fill="#79F1F7"/>
<path d="M194.673 54.6355C195.403 54.6355 195.994 53.9452 195.994 53.0936C195.994 52.2421 195.403 51.5518 194.673 51.5518C193.944 51.5518 193.353 52.2421 193.353 53.0936C193.353 53.9452 193.944 54.6355 194.673 54.6355Z" fill="white"/>
<path d="M194.673 54.0486C195.054 54.0486 195.363 53.6209 195.363 53.0934C195.363 52.5658 195.054 52.1382 194.673 52.1382C194.292 52.1382 193.983 52.5658 193.983 53.0934C193.983 53.6209 194.292 54.0486 194.673 54.0486Z" fill="#94E2EF"/>
<path d="M83.4971 46.4359L74.0374 46.4068C70.8324 46.3971 68.0012 48.4772 67.0543 51.5367L64.8496 58.6691L82.9726 56.0217L83.4971 46.4407V46.4359Z" fill="#8062F6"/>
<path d="M73.7368 49.6313L83.3131 49.675L83.1431 53.6606C83.0751 55.3043 83.4879 56.9286 84.3328 58.3396L86.2801 61.5882L86.0228 61.1615C84.0658 57.9323 81.1472 55.3916 77.6703 53.8982L73.2415 51.9975C72.008 51.469 72.3917 49.6313 73.732 49.6362L73.7368 49.6313Z" fill="#5D49D3"/>
<path d="M103.101 46.4799L105.112 47.6388C108.045 49.3261 109.172 52.9917 107.686 56.027L102.096 67.4699L99.3525 65.8262L101.465 59.3726C102.067 57.5301 102.339 55.5955 102.266 53.656L102.13 50.1504L103.101 46.4751V46.4799Z" fill="#8062F6"/>
<path d="M86.9939 32.656C86.9939 32.656 87.5912 41.1945 90.4806 41.9024C91.7869 42.2224 93.1563 41.7424 93.8216 40.5739L94.3557 39.6332C95.1521 38.2368 96.6673 37.4028 98.2746 37.4756L100.169 37.5628C102.296 37.6598 104.024 39.2987 104.238 41.4127L104.296 41.9994C104.374 42.78 105.263 43.1825 105.904 42.7315L106.651 42.203L106.506 44.4528C106.278 47.9536 103.267 50.6107 99.7606 50.407L92.1365 49.9658C87.9942 49.7282 84.7649 46.2856 84.7892 42.1448L84.8523 31.788L86.0615 29.8389L86.9939 32.6463V32.656Z" fill="#1C3FC8"/>
<path d="M95.3467 37.825C92.8944 37.825 90.8014 35.9438 90.5877 33.4612C90.3643 30.8381 92.3165 28.5204 94.9437 28.2974C97.5708 28.0695 99.892 30.0235 100.115 32.6466C100.339 35.2698 98.3867 37.5875 95.7595 37.8105C95.6187 37.8202 95.4827 37.8299 95.3467 37.8299V37.825ZM91.3113 33.3982C91.5056 35.6237 93.4771 37.2723 95.6964 37.0832C97.9205 36.8941 99.5812 34.9255 99.387 32.7048C99.1976 30.4793 97.2309 28.8356 95.0019 29.0198C92.7778 29.2089 91.1219 31.1775 91.3113 33.3982Z" fill="white"/>
<path d="M84.5615 30.8525C84.3624 30.8525 84.2021 30.6973 84.1973 30.4986C84.1973 30.2998 84.3527 30.1301 84.5518 30.1252L91.8796 29.9458H91.8893C92.0884 29.9458 92.2487 30.101 92.2535 30.2998C92.2535 30.4986 92.0982 30.6683 91.8991 30.6731L84.5712 30.8525H84.5615Z" fill="white"/>
<path d="M90.1553 68.5898C90.0339 68.5898 89.9174 68.5317 89.8445 68.4201C86.1636 62.5484 80.1129 58.6015 73.2512 57.5833L66.6663 56.6087C66.4672 56.5796 66.3312 56.3954 66.3604 56.1966C66.3895 55.9978 66.574 55.862 66.7731 55.8911L73.358 56.8657C80.4334 57.913 86.6638 61.9859 90.4613 68.0371C90.5681 68.2068 90.5147 68.4298 90.3447 68.5365C90.2864 68.5753 90.2185 68.5898 90.1505 68.5898H90.1553Z" fill="#5D49D3"/>
<path d="M100.13 69.0698C100.067 69.0698 99.9985 69.0505 99.9403 69.0165C99.7703 68.9098 99.7169 68.6868 99.8237 68.5171L105.763 58.9361C105.87 58.7664 106.093 58.713 106.263 58.8197C106.433 58.9264 106.486 59.1494 106.379 59.3191L100.44 68.9001C100.372 69.0117 100.251 69.0747 100.13 69.0747V69.0698Z" fill="#5D49D3"/>
<path d="M162.565 98.9815C162.487 98.9815 162.414 98.9573 162.346 98.9088L149.905 89.5653C149.744 89.4441 149.71 89.2162 149.832 89.0562C149.953 88.8962 150.181 88.8623 150.342 88.9835L162.783 98.3269C162.943 98.4481 162.977 98.676 162.856 98.836C162.783 98.933 162.676 98.9815 162.565 98.9815Z" fill="#5D49D3"/>
<path d="M72.4116 119.312C72.2368 119.312 72.0814 119.181 72.0522 119.001L69.6485 103.156C69.6193 102.957 69.7553 102.773 69.9544 102.744C70.1584 102.71 70.338 102.851 70.3672 103.049L72.7709 118.895C72.8001 119.094 72.6641 119.278 72.465 119.307C72.4456 119.307 72.4262 119.307 72.4116 119.307V119.312Z" fill="#5D49D3"/>
</svg>
