<svg preserveAspectRatio="none" width="100%" height="100%" overflow="visible" style="display: block;" viewBox="0 0 28.6716 28.6667" fill="none" xmlns="http://www.w3.org/2000/svg">
<g id="Group 1171275065">
<path id="Rectangle 4811783" d="M1.0026 23.6689C1.0026 22.9325 1.59956 22.3355 2.33594 22.3355H26.3359C27.0723 22.3355 27.6693 22.9325 27.6693 23.6689V27.6667H1.0026V23.6689Z" stroke="var(--stroke-0, #111827)" stroke-width="2" stroke-linejoin="round"/>
<g id="Group 1171275063">
<path id="Vector" d="M3.09961 22.3349V10.5052" stroke="var(--stroke-0, #111827)" stroke-width="2" stroke-miterlimit="10" stroke-linecap="round" stroke-linejoin="round"/>
<path id="Vector_2" d="M10.5902 22.3349V10.5052" stroke="var(--stroke-0, #111827)" stroke-width="2" stroke-miterlimit="10" stroke-linecap="round" stroke-linejoin="round"/>
<path id="Vector_3" d="M18.0806 22.3349V10.5052" stroke="var(--stroke-0, #111827)" stroke-width="2" stroke-miterlimit="10" stroke-linecap="round" stroke-linejoin="round"/>
<path id="Vector_4" d="M25.571 22.2009L25.571 10.6396" stroke="var(--stroke-0, #111827)" stroke-width="2" stroke-miterlimit="10" stroke-linecap="round" stroke-linejoin="round"/>
</g>
<path id="Rectangle 4811777" d="M1 7.70684C1 7.19062 1.30189 6.72143 1.77352 6.50463L13.2156 1.24497C13.9262 0.918343 14.7454 0.918342 15.4559 1.24497L26.8981 6.50463C27.3697 6.72143 27.6716 7.19062 27.6716 7.70684V9.01344C27.6716 9.74505 27.0745 10.3381 26.338 10.3381H2.33359C1.59707 10.3381 1 9.74505 1 9.01344V7.70684Z" stroke="var(--stroke-0, #111827)" stroke-width="2"/>
</g>
</svg>
