<svg width="64" height="64" viewBox="0 0 64 64" fill="none" xmlns="http://www.w3.org/2000/svg">
<path d="M0 32C0 14.3269 14.3269 0 32 0V0C49.6731 0 64 14.3269 64 32V32C64 49.6731 49.6731 64 32 64V64C14.3269 64 0 49.6731 0 32V32Z" fill="#C7F9D6"/>
<g clip-path="url(#clip0_304_9494)">
<path d="M36.9997 48.6663H26.9997C18.6663 48.6663 15.333 45.333 15.333 36.9997V26.9997C15.333 18.6663 18.6663 15.333 26.9997 15.333H36.9997C45.333 15.333 48.6663 18.6663 48.6663 26.9997V36.9997C48.6663 45.333 45.333 48.6663 36.9997 48.6663Z" fill="#00875F"/>
<path d="M36.9997 48.6663H26.9997C18.6663 48.6663 15.333 45.333 15.333 36.9997V26.9997C15.333 18.6663 18.6663 15.333 26.9997 15.333H36.9997C45.333 15.333 48.6663 18.6663 48.6663 26.9997V36.9997C48.6663 45.333 45.333 48.6663 36.9997 48.6663Z" fill="url(#paint0_linear_304_9494)" fill-opacity="0.3"/>
<path d="M40.533 20.5H35.6496C34.9663 20.5 34.3996 21.0667 34.3996 21.75C34.3996 22.4333 34.9663 23 35.6496 23H37.7496C33.7996 27.1667 28.7996 30.1 23.1663 31.5C22.4996 31.6667 22.083 32.35 22.2496 33.0167C22.383 33.5833 22.8996 33.9667 23.4663 33.9667C23.5663 33.9667 23.6663 33.9667 23.7663 33.9333C29.7163 32.45 35.033 29.3667 39.283 25.0167V26.6167C39.283 27.3 39.8496 27.8667 40.533 27.8667C41.2163 27.8667 41.783 27.3 41.783 26.6167V21.75C41.783 21.0667 41.2163 20.5 40.533 20.5Z" fill="#57DB9A"/>
<path d="M23.4668 37.5498C22.7835 37.5498 22.2168 38.1165 22.2168 38.7998V42.2498C22.2168 42.9331 22.7835 43.4998 23.4668 43.4998C24.1501 43.4998 24.7168 42.9331 24.7168 42.2498V38.7998C24.7168 38.1165 24.1501 37.5498 23.4668 37.5498Z" fill="#2DB780"/>
<path d="M32 34.0996C31.3167 34.0996 30.75 34.6663 30.75 35.3496V42.2496C30.75 42.9329 31.3167 43.4996 32 43.4996C32.6833 43.4996 33.25 42.9329 33.25 42.2496V35.3496C33.25 34.6663 32.6833 34.0996 32 34.0996Z" fill="#2DB780"/>
<path d="M40.5332 30.6338C39.8499 30.6338 39.2832 31.2005 39.2832 31.8838V42.2505C39.2832 42.9338 39.8499 43.5005 40.5332 43.5005C41.2165 43.5005 41.7832 42.9338 41.7832 42.2505V31.8838C41.7832 31.2005 41.2165 30.6338 40.5332 30.6338Z" fill="#2DB780"/>
</g>
<defs>
<linearGradient id="paint0_linear_304_9494" x1="17.833" y1="22.8144" x2="50.7757" y2="39.5023" gradientUnits="userSpaceOnUse">
<stop stop-color="white" stop-opacity="0"/>
<stop offset="1" stop-color="#010003"/>
</linearGradient>
<clipPath id="clip0_304_9494">
<rect width="40" height="40" fill="white" transform="translate(12 12)"/>
</clipPath>
</defs>
</svg>
